<?xml version="1.0" encoding="UTF-8" standalone="no"?>
<!-- Created with Inkscape (http://www.inkscape.org/) -->

<svg
   width="210mm"
   height="297mm"
   viewBox="0 0 210 297"
   version="1.1"
   id="svg5"
   inkscape:version="1.1.1 (3bf5ae0d25, 2021-09-20)"
   sodipodi:docname="tomato.svg"
   xmlns:inkscape="http://www.inkscape.org/namespaces/inkscape"
   xmlns:sodipodi="http://sodipodi.sourceforge.net/DTD/sodipodi-0.dtd"
   xmlns="http://www.w3.org/2000/svg"
   xmlns:svg="http://www.w3.org/2000/svg">
  <sodipodi:namedview
     id="namedview7"
     pagecolor="#505050"
     bordercolor="#eeeeee"
     borderopacity="1"
     inkscape:pageshadow="0"
     inkscape:pageopacity="0"
     inkscape:pagecheckerboard="0"
     inkscape:document-units="mm"
     showgrid="false"
     inkscape:zoom="0.81386721"
     inkscape:cx="261.71346"
     inkscape:cy="612.50778"
     inkscape:current-layer="layer1"
     showguides="true"
     inkscape:guide-bbox="true">
    <sodipodi:guide
       position="-29.654024,176.31502"
       orientation="1,0"
       id="guide1556" />
  </sodipodi:namedview>
  <defs
     id="defs2">
    <inkscape:path-effect
       effect="simplify"
       id="path-effect1756"
       is_visible="true"
       lpeversion="1"
       steps="1"
       threshold="0.002"
       smooth_angles="0"
       helper_size="5"
       simplify_individual_paths="false"
       simplify_just_coalesce="false" />
    <clipPath
       clipPathUnits="userSpaceOnUse"
       id="clipPath1092">
      <path
         style="fill:none;stroke:#000000;stroke-width:0.264583px;stroke-linecap:butt;stroke-linejoin:miter;stroke-opacity:1"
         d="M 110.36017,-62.608565 L 263.84067,20.637815 L 171.65099,81.431633 Z"
         id="path1094" />
    </clipPath>
  </defs>
  <g
     inkscape:label="Layer 1"
     inkscape:groupmode="layer"
     id="layer1">
    <path
       style="fill:#000000;stroke-width:1"
       d="M 83.446829,175.50835 C 83.866864,174.06839 84.887877,172.84469 86.307741,172.31145 C 87.66216,171.6068 89.282647,171.33161 90.440787,170.29503 C 91.652458,168.59026 88.819745,168.10459 87.828051,167.3562 C 86.194079,166.58867 84.621764,165.56735 83.687704,163.97478 C 81.807541,161.07928 79.568117,158.16657 79.09391,154.64984 C 78.904143,152.5711 79.292244,150.44877 79.994012,148.49693 C 81.227769,147.26107 82.942179,149.41638 84.459174,149.33352 C 86.075552,149.86425 87.968441,149.83557 89.343458,150.92818 C 90.210412,151.86521 91.013033,153.1443 92.364997,153.29564 C 92.621066,154.20596 94.489877,154.08225 94.787177,153.92171 C 93.977818,152.09166 91.931375,151.33161 90.252999,150.507 C 88.154425,149.52927 85.788089,148.98953 83.965524,147.50915 C 82.230964,145.86358 80.668142,143.9028 79.881639,141.62094 C 80.394254,139.85021 78.448819,139.46303 77.718243,138.21432 C 74.978324,134.08679 72.945276,129.53721 70.948732,125.01743 C 70.014095,122.66826 68.893144,120.33623 68.499181,117.82137 C 68.940003,116.62079 70.47858,118.69021 71.501829,118.43957 C 76.848637,119.43135 82.432799,119.03416 87.623811,120.86373 C 89.067955,121.12442 90.241316,122.07543 90.679886,123.49688 C 91.140444,124.35577 92.611466,126.43231 93.216825,125.96016 C 93.463704,124.79369 93.530322,123.5577 92.956932,122.46585 C 91.623764,119.28614 89.419799,116.445 88.874642,112.96637 C 88.831108,111.99267 88.008445,109.74029 89.703911,109.95604 C 91.773453,110.34216 91.506351,107.82901 91.139665,106.56378 C 90.570003,103.81807 89.681564,101.04493 89.953466,98.213471 C 90.537036,96.755758 92.920692,98.955417 93.432597,97.247627 C 93.83013,95.620117 93.417349,93.766148 94.338206,92.288662 C 95.745761,91.603002 95.86918,89.992973 96.347532,88.677043 C 97.487165,85.824583 98.771347,82.977119 100.60923,80.500522 C 101.61754,79.522623 102.78574,78.482978 102.86903,76.974832 C 103.38082,74.110682 103.49126,71.195642 103.48057,68.294158 C 103.60537,66.896734 103.87787,65.240569 105.07432,64.361221 C 105.73659,65.324802 105.66581,66.941249 106.24346,68.108461 C 106.7061,69.707344 107.81241,71.083612 107.92014,72.785539 C 108.4283,74.331553 110.05579,75.08664 111.11866,76.215753 C 113.08866,78.072899 113.91002,80.73639 115.13373,83.080154 C 116.2648,85.665397 117.67982,88.241222 117.94174,91.093342 C 118.232,92.699373 116.44694,93.31564 116.05775,94.646355 C 115.80076,95.800047 116.67906,93.547719 117.38368,93.649738 C 118.14487,93.029763 119.02076,91.846734 119.79003,93.266022 C 121.07392,95.07986 122.04645,97.164894 122.5251,99.338099 C 122.95983,102.24988 121.2015,105.00219 121.53506,107.89914 C 123.1878,107.3876 124.52372,105.70489 126.38455,105.90453 C 127.81933,106.52113 127.50972,108.41149 127.50229,109.6989 C 127.34857,111.71681 127.41499,113.76445 126.83175,115.72595 C 125.93935,119.51092 124.4366,123.13255 123.57385,126.91926 C 124.95209,126.79977 126.68519,127.58887 126.12203,129.3423 C 125.95417,130.64126 125.02004,131.86564 125.38707,133.20076 C 124.60357,134.49042 123.19287,135.26908 122.16358,136.35929 C 119.90461,138.43226 118.17724,141.05295 115.61308,142.7934 C 113.96504,144.12265 112.08394,145.23943 110.73788,146.89214 C 109.52408,148.98261 108.53216,151.23207 107.92057,153.57362 C 108.1146,155.60462 110.60102,153.6668 111.19958,152.74725 C 113.48322,150.05475 114.32084,146.46033 116.52469,143.71233 C 117.82498,142.38924 119.93811,142.12641 121.04144,140.55162 C 121.78053,138.18894 124.012,136.71724 126.07524,135.57975 C 127.37647,134.96557 129.07126,134.1618 130.38233,135.16006 C 131.8683,135.61955 133.53347,135.60169 134.98197,135.02219 C 136.69861,134.72184 138.27356,135.54265 139.79818,136.16328 C 142.8549,136.80801 146.03658,136.19568 149.08663,136.87062 C 150.27446,137.70151 148.01427,139.02487 147.41321,139.75395 C 146.16341,140.77114 144.67786,141.4994 143.62288,142.7437 C 142.49986,142.9546 142.59768,144.3755 141.37822,144.90943 C 140.77179,145.72924 138.91501,146.18729 138.74243,146.82357 C 139.21095,147.44495 137.53268,148.6647 137.61034,147.55752 C 137.12142,148.23268 135.44707,149.85487 134.98713,149.1112 C 135.15541,148.32107 133.62936,149.8991 133.17672,149.98377 C 129.12974,152.50271 124.66224,154.57715 121.52339,158.28937 C 120.18983,159.03398 120.86369,161.06445 122.39529,160.23705 C 125.64218,159.06145 128.73798,156.73635 132.35997,157.17202 C 133.75538,157.62841 135.22729,157.57972 136.56168,157.74108 C 137.48808,158.9562 136.66231,160.60546 135.96368,161.73335 C 135.14983,163.22782 133.89167,164.41306 132.39393,165.20911 C 130.44626,166.4017 128.47548,167.59736 126.7473,169.09937 C 126.62768,170.36893 129.10937,170.69953 129.16917,172.21091 C 129.31061,173.9209 127.61911,174.98886 126.31975,175.74501 C 125.04898,176.51692 123.5429,176.81829 122.30268,177.6307 C 122.0661,178.92223 122.32261,180.9774 120.29387,180.96599 C 117.03183,181.3949 113.37738,180.91456 110.81255,178.69572 C 109.35365,177.56269 109.34939,175.60023 108.50942,174.10082 C 106.85207,173.12112 106.18582,175.68086 106.30645,176.93568 C 105.99974,183.18864 106.2802,189.45599 106.00131,195.70902 C 106.22183,197.1077 105.11417,197.44101 104.0963,196.78468 C 103.55179,196.6821 103.1171,196.50018 103.31106,195.86402 C 103.27781,191.17288 103.32656,186.47949 103.18871,181.7904 C 102.9067,179.68199 103.30977,177.40682 102.35132,175.4377 C 101.10142,174.52179 101.05649,177.30342 99.893038,177.62942 C 97.098475,179.5312 93.519629,179.84138 90.232414,179.59284 C 87.946346,179.36331 85.671985,178.64077 83.734372,177.40036 C 83.080258,176.96909 83.163455,176.13263 83.446829,175.50835 Z"
       id="path1517"
       sodipodi:nodetypes="ssssssssccccssssssccccssssssssscsssssssssssssssssssssscssssssssssssssssssssssssssssssscssssssssssscssssss"
       inkscape:path-effect="#path-effect1756"
       inkscape:original-d="M 83.446829,175.50835 C 84.248189,173.36822 84.804049,172.87383 87.712959,171.71398 C 89.989789,170.80616 90.456079,170.51349 90.676859,169.85364 C 90.970669,168.97553 91.053869,169.04548 87.505969,167.18758 C 85.171659,165.9652 84.787759,165.61965 83.294439,163.39685 C 78.995169,156.99737 78.394919,154.8324 79.551419,149.89653 C 80.029309,147.85691 80.350299,147.65417 81.842749,148.44929 C 82.479119,148.78832 84.372539,149.35964 86.050339,149.71889 C 88.299039,150.20039 89.200129,150.57112 89.478429,151.12929 C 90.052727,151.62147 91.151304,153.19695 91.864899,153.15314 C 92.173999,153.12335 92.413991,153.2405 92.398191,153.41349 C 92.896516,154.33463 94.162584,153.82704 94.447441,153.97992 C 94.884331,154.23858 94.920551,154.16007 94.634001,153.57556 C 94.067091,152.41924 92.133569,151.20463 88.788019,149.90321 C 87.078139,149.23808 85.284999,148.44693 84.803249,148.1451 C 82.665469,146.80575 79.580179,142.35732 79.826049,140.96889 C 79.963939,140.19025 79.856009,140.0282 78.742069,139.34127 C 76.312109,137.8428 66.907439,117.18556 68.730999,117.35208 C 68.956269,117.37265 69.764009,117.76759 70.525969,118.22972 C 75.727159,119.45653 80.975671,118.87697 86.610329,120.55461 C 89.675519,121.48062 89.675519,121.48062 90.561099,123.25681 C 91.179381,124.56183 92.041255,125.46624 93.165571,126.28549 L 93.374751,124.95773 C 93.589581,123.59416 93.233391,122.6868 90.460469,117.53384 C 89.411189,115.58396 88.668949,112.8822 88.673629,111.02973 C 88.676349,109.95472 88.692649,109.94071 89.920169,109.9588 C 91.620009,109.98386 91.773359,109.02965 90.745939,104.82043 C 89.866269,101.21655 89.616489,98.043468 90.190949,97.770188 C 90.401799,97.669875 91.068009,97.688545 91.671419,97.811678 C 93.265851,98.137018 93.492101,97.898368 93.620211,95.756005 C 93.780361,93.077735 94.029461,92.299855 94.859491,91.886025 C 95.254081,91.689285 95.674921,91.054635 95.794701,90.475695 C 96.325651,87.909245 99.554101,81.396515 100.8788,80.219585 C 101.6138,79.566565 102.36623,78.673506 102.55087,78.235006 C 103.03667,77.081276 103.56819,71.937566 103.45694,69.466566 C 103.40444,68.300306 103.61788,66.737656 103.93126,65.994002 C 104.59508,64.418746 105.31416,63.860357 105.40709,64.847969 C 105.52492,66.100289 106.44051,68.970126 107.11602,70.204486 C 107.48888,70.885816 107.83193,71.907776 107.87837,72.475516 C 107.9498,73.348916 108.29114,73.785316 110.09661,75.311476 C 111.90999,76.844316 112.41776,77.495366 113.47785,79.646805 C 118.15576,89.140535 118.83833,91.781045 116.9982,93.265185 C 116.55569,93.622085 116.13249,94.243615 116.05775,94.646355 C 115.94286,95.265505 115.95983,95.283565 116.16766,94.763305 C 116.30285,94.424895 116.77466,93.965215 117.21612,93.741795 C 117.65758,93.518365 118.15821,93.105095 118.32863,92.823415 C 118.88394,91.905595 120.09593,93.196885 121.40823,96.104515 C 122.80421,99.197538 122.8962,100.21091 122.08331,103.54116 C 121.5396,105.76861 121.32466,107.47715 121.53506,107.89914 C 121.57778,107.98483 122.34194,107.59231 123.23318,107.02687 C 126.73214,104.807 127.8767,105.70139 127.45315,110.32451 C 127.42193,110.66528 127.37416,111.77408 127.347,112.7885 C 127.31984,113.80292 126.70908,116.50216 125.98975,118.78682 C 123.70817,126.03335 123.44437,126.94389 123.61407,126.98665 C 123.70533,127.00965 124.18257,127.0354 124.67462,127.04387 C 126.13315,127.06901 126.57373,128.5083 125.77175,130.62799 C 125.39759,131.61693 125.19008,132.62387 125.31062,132.86563 C 125.54819,133.34213 125.40486,133.51033 122.94117,135.64601 C 122.03706,136.42975 120.5028,137.98341 119.5317,139.09859 C 117.69678,141.20576 117.48702,141.39181 113.93468,144.06279 C 112.74868,144.95454 111.45421,146.03559 111.05808,146.46512 C 110.03867,147.57049 107.62089,153.38917 107.91018,154.04094 C 108.56446,155.51504 111.3366,153.34602 112.95501,150.09369 C 116.02438,143.92551 116.37151,143.42275 118.11178,142.62495 C 119.69375,141.89972 121.01884,140.89082 121.14218,140.31766 C 121.73717,137.55283 128.31568,133.5819 130.01757,134.96029 C 130.7512,135.55446 133.55678,135.66332 134.60949,135.13846 C 135.42134,134.73369 137.80426,135.10532 138.885,135.80526 C 139.58995,136.26182 141.11304,136.47344 143.8671,136.49749 C 147.70255,136.53097 149.30542,136.71643 149.52251,137.15185 C 149.74614,137.60037 147.77684,139.67074 146.19381,140.65139 C 145.27627,141.21978 144.33043,141.95995 144.09195,142.29621 C 143.85346,142.63247 143.4089,142.93164 143.10402,142.96103 C 142.79915,142.99042 142.6899,143.10133 142.86126,143.2075 C 143.33027,143.4981 139.82021,146.33703 138.71309,146.56253 C 138.55084,146.59558 138.56405,146.71305 138.74243,146.82357 C 138.9208,146.93409 138.88568,147.22208 138.66437,147.46355 C 138.04718,148.13694 137.64053,148.25855 137.68642,147.75601 C 137.71658,147.42574 137.59811,147.48481 137.25224,147.97249 C 136.61222,148.87491 134.55033,149.91147 134.98713,149.1112 C 135.22251,148.67998 135.08927,148.69541 134.4281,149.1759 C 133.95067,149.52287 132.18496,150.60659 130.50429,151.58416 C 125.50099,154.49436 124.09819,155.52982 121.73966,158.05366 C 120.5161,159.36299 120.41887,159.81765 121.25409,160.32433 C 121.66896,160.576 122.55989,160.27972 125.22164,159.00493 C 129.10349,157.1458 131.06837,156.76089 133.45789,157.39149 C 134.31222,157.61695 135.11508,157.75528 135.24202,157.69888 C 137.09347,156.87634 137.59245,159.13682 136.08871,161.53459 C 134.72243,163.71318 134.43472,163.98731 131.95363,165.4745 C 129.46642,166.96536 126.70805,168.93551 126.58247,169.31082 C 126.53508,169.45244 127.1603,170.03072 127.97184,170.59588 C 130.48746,172.34776 129.03225,174.79757 124.37354,176.65357 C 121.98571,177.60487 121.98571,177.60487 122.13366,178.76277 C 122.342,180.39337 121.45328,181.01758 118.79785,181.10571 C 114.16802,181.25937 110.27343,179.37647 109.42562,176.57455 C 108.59001,173.81296 108.44824,173.61583 107.53495,173.94563 C 106.26713,174.40344 106.19227,175.06412 106.14183,186.24006 C 106.08814,198.13854 106.18468,197.48343 104.56479,196.94143 L 103.31337,196.52271 L 103.28777,189.23023 C 103.2737,185.21937 103.22911,181.87145 103.18871,181.7904 C 103.1483,181.70935 103.08234,180.50971 103.04213,179.12452 C 102.93546,175.44974 101.95566,173.95673 101.0951,176.15766 C 99.856611,179.32518 91.692969,180.77086 86.503479,178.74167 C 83.277899,177.48039 82.869979,177.0489 83.446829,175.50835 Z" />
  </g>
</svg>
