<?xml version="1.0" encoding="UTF-8" standalone="no"?>
<!-- Created with Inkscape (http://www.inkscape.org/) -->

<svg
   width="210mm"
   height="297mm"
   viewBox="0 0 210 297"
   version="1.1"
   id="svg5"
   inkscape:version="1.1.1 (3bf5ae0d25, 2021-09-20)"
   sodipodi:docname="myWaterMellon.svg"
   xmlns:inkscape="http://www.inkscape.org/namespaces/inkscape"
   xmlns:sodipodi="http://sodipodi.sourceforge.net/DTD/sodipodi-0.dtd"
   xmlns:xlink="http://www.w3.org/1999/xlink"
   xmlns="http://www.w3.org/2000/svg"
   xmlns:svg="http://www.w3.org/2000/svg">
  <sodipodi:namedview
     id="namedview7"
     pagecolor="#505050"
     bordercolor="#eeeeee"
     borderopacity="1"
     inkscape:pageshadow="0"
     inkscape:pageopacity="0"
     inkscape:pagecheckerboard="0"
     inkscape:document-units="mm"
     showgrid="false"
     inkscape:snap-global="false"
     inkscape:zoom="0.81386721"
     inkscape:cx="542.47179"
     inkscape:cy="423.90208"
     inkscape:window-width="1838"
     inkscape:window-height="1051"
     inkscape:window-x="-9"
     inkscape:window-y="-9"
     inkscape:window-maximized="1"
     inkscape:current-layer="layer1"
     showguides="false">
    <sodipodi:guide
       position="116.54619,163.6302"
       orientation="1,0"
       id="guide33071" />
  </sodipodi:namedview>
  <defs
     id="defs2">
    <linearGradient
       inkscape:collect="always"
       id="linearGradient34141">
      <stop
         style="stop-color:#c7e8ce;stop-opacity:1;"
         offset="0"
         id="stop34137" />
      <stop
         style="stop-color:#ffffff;stop-opacity:0.35067874"
         offset="1"
         id="stop34139" />
    </linearGradient>
    <linearGradient
       inkscape:collect="always"
       id="linearGradient16547">
      <stop
         style="stop-color:#000000;stop-opacity:0.50980395"
         offset="0"
         id="stop16543" />
      <stop
         style="stop-color:#000000;stop-opacity:0"
         offset="1"
         id="stop16545" />
    </linearGradient>
    <linearGradient
       inkscape:collect="always"
       id="linearGradient13709">
      <stop
         style="stop-color:#ffffff;stop-opacity:1"
         offset="0"
         id="stop13705" />
      <stop
         style="stop-color:#ffffff;stop-opacity:0"
         offset="1"
         id="stop13707" />
    </linearGradient>
    <linearGradient
       inkscape:collect="always"
       id="linearGradient13269">
      <stop
         style="stop-color:#ffffff;stop-opacity:1"
         offset="0"
         id="stop13265" />
      <stop
         style="stop-color:#ffffff;stop-opacity:0"
         offset="1"
         id="stop13267" />
    </linearGradient>
    <linearGradient
       inkscape:collect="always"
       xlink:href="#linearGradient13269"
       id="linearGradient13271"
       x1="25.146595"
       y1="74.637367"
       x2="48.223072"
       y2="93.343803"
       gradientUnits="userSpaceOnUse"
       gradientTransform="matrix(3.7795276,0,0,3.7795276,0,-2)" />
    <linearGradient
       inkscape:collect="always"
       xlink:href="#linearGradient13709"
       id="linearGradient13639"
       x1="33.629944"
       y1="75.12455"
       x2="42.831131"
       y2="82.086235"
       gradientUnits="userSpaceOnUse"
       gradientTransform="matrix(3.3475988,0,0,3.3475988,10.708673,29.414783)" />
    <linearGradient
       inkscape:collect="always"
       xlink:href="#linearGradient16547"
       id="linearGradient16319"
       gradientUnits="userSpaceOnUse"
       x1="24.604918"
       y1="59.159504"
       x2="50.334976"
       y2="92.79998"
       gradientTransform="matrix(-3.7703446,0.2633063,-0.2633063,-3.7703446,548.53804,829.66346)" />
    <radialGradient
       inkscape:collect="always"
       xlink:href="#linearGradient34141"
       id="radialGradient34143"
       cx="106.31772"
       cy="155.9836"
       fx="106.31772"
       fy="155.9836"
       r="104.47871"
       gradientTransform="matrix(0.98459846,0,0,0.60066005,0.02832358,35.947172)"
       gradientUnits="userSpaceOnUse" />
    <linearGradient
       inkscape:collect="always"
       xlink:href="#linearGradient16547"
       id="linearGradient34593"
       gradientUnits="userSpaceOnUse"
       gradientTransform="rotate(176.00517,-9.7127564,111.39357)"
       x1="24.604918"
       y1="59.159504"
       x2="50.334976"
       y2="92.79998" />
    <linearGradient
       inkscape:collect="always"
       xlink:href="#linearGradient13709"
       id="linearGradient34595"
       gradientUnits="userSpaceOnUse"
       gradientTransform="matrix(0.88571884,0,0,0.88571884,-153.9422,11.46068)"
       x1="40.961842"
       y1="80.704582"
       x2="42.831131"
       y2="82.086235" />
    <linearGradient
       inkscape:collect="always"
       xlink:href="#linearGradient13269"
       id="linearGradient34597"
       gradientUnits="userSpaceOnUse"
       gradientTransform="translate(-156.77554,3.1488519)"
       x1="36.410526"
       y1="83.142784"
       x2="48.223072"
       y2="93.343803" />
    <filter
       inkscape:collect="always"
       style="color-interpolation-filters:sRGB"
       id="filter37358"
       x="-0.05957728"
       y="-0.088511945"
       width="1.1191546"
       height="1.1770239">
      <feGaussianBlur
         inkscape:collect="always"
         stdDeviation="0.94736697"
         id="feGaussianBlur37360" />
    </filter>
    <filter
       inkscape:collect="always"
       style="color-interpolation-filters:sRGB"
       id="filter37768"
       x="-0.16628976"
       y="-0.62131903"
       width="1.3325795"
       height="2.2426381">
      <feGaussianBlur
         inkscape:collect="always"
         stdDeviation="4.6288705"
         id="feGaussianBlur37770" />
    </filter>
    <linearGradient
       inkscape:collect="always"
       xlink:href="#linearGradient13269"
       id="linearGradient40081"
       gradientUnits="userSpaceOnUse"
       gradientTransform="matrix(3.7795276,0,0,3.7795276,0,-2)"
       x1="25.146595"
       y1="74.637367"
       x2="48.223072"
       y2="93.343803" />
    <linearGradient
       inkscape:collect="always"
       xlink:href="#linearGradient13709"
       id="linearGradient40083"
       gradientUnits="userSpaceOnUse"
       gradientTransform="matrix(3.3475988,0,0,3.3475988,10.708673,29.414783)"
       x1="33.629944"
       y1="75.12455"
       x2="42.831131"
       y2="82.086235" />
    <linearGradient
       inkscape:collect="always"
       xlink:href="#linearGradient16547"
       id="linearGradient40085"
       gradientUnits="userSpaceOnUse"
       gradientTransform="matrix(-3.7703446,0.2633063,-0.2633063,-3.7703446,548.53804,829.66346)"
       x1="24.604918"
       y1="59.159504"
       x2="50.334976"
       y2="92.79998" />
    <clipPath
       clipPathUnits="userSpaceOnUse"
       id="clipPath40164">
      <rect
         style="opacity:0.95;fill:url(#radialGradient40168);fill-opacity:1;stroke:none;stroke-width:0.25467"
         id="rect40166"
         width="205.73917"
         height="125.51237"
         x="-18.450371"
         y="-255.62215"
         ry="3.1966882"
         transform="scale(1,-1)" />
    </clipPath>
    <radialGradient
       inkscape:collect="always"
       xlink:href="#linearGradient34141"
       id="radialGradient40168"
       gradientUnits="userSpaceOnUse"
       gradientTransform="matrix(0.98459846,0,0,0.60066005,-20.261056,-281.51167)"
       cx="106.31772"
       cy="155.9836"
       fx="106.31772"
       fy="155.9836"
       r="104.47871" />
  </defs>
  <g
     inkscape:label="Layer 1"
     inkscape:groupmode="layer"
     id="layer1">
    <rect
       style="opacity:0.95;fill:url(#radialGradient34143);fill-opacity:1;stroke:none;stroke-width:0.25467"
       id="rect34003"
       width="205.73917"
       height="125.51237"
       x="1.8390093"
       y="61.836689"
       ry="3.1966882" />
    <g
       id="g40079"
       transform="matrix(1,0,0,-1,20.28938,317.45884)"
       clip-path="url(#clipPath40164)"
       style="opacity:0.11984283">
      <path
         id="path40065"
         style="opacity:0.95;fill:#008c39;fill-opacity:1;stroke-width:0.3"
         d="m 113.09908,111.94968 a 44.366096,44.366096 0 0 1 -44.366101,44.36609 44.366096,44.366096 0 0 1 -44.366097,-44.36609 44.366096,44.366096 0 0 1 44.366097,-44.3661 44.366096,44.366096 0 0 1 44.366101,44.3661 z" />
      <path
         id="path40067"
         style="fill:#033401;fill-opacity:0.384615;stroke:none;stroke-width:0.999999px;stroke-linecap:butt;stroke-linejoin:miter;stroke-opacity:1"
         d="m 249.32031,255.82422 a 167.68288,167.68288 0 0 0 -27.84375,4.08008 l 0.94141,15.07812 10.42578,16.94141 -2.60547,29.10547 -2.17187,19.54882 11.72851,19.11524 -1.30273,22.1543 -11.29492,30.4082 0.86914,29.97461 7.38476,10.42578 -9.12305,43.87695 5.2129,35.6211 -5.2129,33.44922 6.08204,10.86132 5.95703,12.86524 a 167.68288,167.68288 0 0 0 21.41015,1.46875 167.68288,167.68288 0 0 0 11.51172,-0.42969 l 2.82422,-11.29883 -5.21289,-14.76953 L 255,554.74414 l 9.99023,-29.97461 c 0,0 -3.03906,-36.92511 -3.03906,-40.40039 0,-3.47531 -3.91015,-47.35156 -3.91015,-47.35156 l -14.33594,-23.02344 16.07226,-28.23633 10.42578,-14.76953 -9.55664,-25.19726 -13.46679,-25.62891 8.2539,-11.73047 9.12305,-20.85156 -13.90039,-16.07227 z m 28.33789,0.57226 -0.9375,12.50391 -2.60742,14.76953 3.04102,19.54883 3.04101,23.89258 6.51563,7.82031 -0.4336,21.7207 2.17188,21.72071 7.38476,11.29492 v 24.76172 l 2.60743,15.20312 -2.17188,29.10547 7.38477,4.34375 v 18.67969 c 0,0 -0.43555,21.28689 -0.43555,23.45898 0,2.17206 -2.17188,20.85157 -2.17187,20.85157 l 7.82031,11.72851 0.86914,17.8125 c 0,0 -4.7793,13.90104 -4.7793,15.63867 0,1.46086 2.67419,9.38423 3.65235,12.25782 a 167.68288,167.68288 0 0 0 36.26953,-15.9668 c 0.20662,-0.73397 0.47851,-1.59092 0.47851,-1.93945 0,-2.17206 -9.12305,-16.50782 -9.12304,-16.50782 l -6.51563,-11.29492 c 0,0 4.34375,-18.24378 4.34375,-22.58789 0,-4.34411 -8.6875,-10.86115 -8.6875,-13.0332 0,-2.17206 0.86719,-24.76172 0.86719,-24.76172 l -0.86719,-30.4082 -9.99219,-17.81055 0.86914,-9.99219 v -21.28515 -13.4668 l 4.34375,-21.7207 -5.21289,-27.80274 -7.82031,-8.68945 -3.47461,-16.94141 v -16.50781 l -7.81836,-9.55664 0.86719,-6.95117 2.15039,-16.11914 a 167.68288,167.68288 0 0 0 -21.62891,-3.76954 z m 43.67774,10.75977 -0.30664,2.61328 -5.64649,11.72852 13.90039,4.3457 -1.73632,19.98242 3.04101,9.12305 v 28.23633 l 2.17188,20.85156 7.81835,2.17187 -1.73632,23.02344 6.94922,17.37696 13.90234,9.99218 -5.64844,6.94922 -2.17187,19.98438 2.60742,23.89257 -2.17188,23.02344 4.77735,7.81836 c 0,0 -0.86914,14.33654 -0.86914,16.07422 v 17.37695 l -3.04102,15.63868 4.83203,11.52148 a 167.68288,167.68288 0 0 0 25.37305,-22.50195 c -0.12302,-1.68835 -0.44797,-3.90846 -1.09766,-6.83203 -2.60647,-11.72913 -3.04101,-24.32618 -3.04101,-24.32618 l -4.34571,-8.2539 v -17.37696 -20.41601 l -6.08007,-23.02539 10.85937,-10.85938 0.4336,-21.28711 -12.16211,-15.20312 -9.5586,-17.37695 3.47656,-10.42579 -5.64843,-25.63086 3.47656,-14.33593 -10.42578,-15.63868 4.77734,-13.46679 -1.76172,-8.65235 a 167.68288,167.68288 0 0 0 -30.94726,-16.11523 z m -135.81055,5.67383 a 167.68288,167.68288 0 0 0 -31.37695,20.11914 l -1.23633,10.70508 5.21289,9.55664 -4.34375,13.03125 15.20508,3.47656 -4.7793,10.42578 -11.29492,16.50781 15.20508,3.91016 -10.85938,10.85938 -2.17383,19.54882 0.86914,11.72852 -7.38476,19.11523 7.82031,6.94922 15.63867,0.86914 -10.42578,16.50781 -1.30273,13.9004 -2.60742,13.46679 -7.82032,6.95117 1.73829,11.29493 -1.30274,16.07421 11.29492,2.60547 -7.38476,14.76953 5.64648,6.51758 2.60742,19.11328 0.63282,9.19336 a 167.68288,167.68288 0 0 0 28.46484,16.14844 l 1.74414,-6.22851 -6.08203,-46.91602 6.95117,-11.29492 1.73828,-23.45703 -12.16406,-13.90235 13.0332,-27.36718 -6.95117,-33.88477 -2.60742,-19.54883 7.38672,-19.11328 -1.30469,-27.80273 -3.47461,-26.06446 1.30273,-8.6875 -6.94921,-21.7207 2.17187,-12.16406 z m 193.72266,32.63672 -2.34375,1.70898 2.76367,8.9082 -4.60742,16.2793 6.75781,4.91602 0.61523,9.52148 v 14.4375 8.9082 l -0.30664,8.90821 2.45703,6.45117 6.14258,3.99219 -1.84179,18.12304 c 0,0 0.61328,9.8297 0.61328,12.28711 0,2.45741 0.30664,7.06641 0.30664,7.06641 l 3.6875,0.61328 -3.07227,6.45117 -0.30664,9.52149 3.68555,4.30078 c 0,0 1.53515,7.06498 1.53515,10.13672 v 9.52343 c 0,1.22869 1.84375,8.90821 1.84375,8.90821 l -9.21484,18.42969 v 7.67968 l 0.30664,11.0586 10.44336,-1.53711 2.69336,0.61328 a 167.68288,167.68288 0 0 0 14.24219,-27.78906 l 0.57422,-6.30469 2.76367,-13.20899 -1.22852,-12.28711 v -7.67968 l 3.6875,-9.83008 0.30664,-14.74414 -20.58007,-55.90625 0.61328,-17.20117 -9.83008,-26.10938 -0.44922,-2.24609 A 167.68288,167.68288 0 0 0 379.24805,305.4668 Z m -249.19922,11.50976 a 167.68288,167.68288 0 0 0 -23.6836,38.74024 l 1.14649,1.52734 -4.30078,14.13086 -0.30664,14.4375 -6.451175,8.60156 2.763672,8.29297 -5.220703,15.66602 0.921875,10.13672 0.30664,12.28711 2.763672,7.67968 v 16.2793 l 7.066409,2.15039 -1.53711,12.59375 v 4.39258 a 167.68288,167.68288 0 0 0 23.04492,40.90625 l 4.60156,-7.82227 -0.92187,-17.8164 -4.60742,-12.28711 6.14257,-13.51563 -7.37109,-9.21484 6.45117,-19.35352 -8.60156,-15.05078 -2.45703,-14.13086 10.75,-12.59375 v -21.80859 l -2.76367,-23.03906 0.61328,-13.20899 9.21679,-9.21484 z"
         transform="scale(0.26458333)" />
      <path
         id="path40069"
         style="fill:#000000;fill-opacity:0.506787;stroke:none;stroke-width:0.999999px;stroke-linecap:butt;stroke-linejoin:miter;stroke-opacity:1"
         d="m 240.66406,256.64453 c -4.4931,0.51432 -8.96355,1.21021 -13.40039,2.08594 l 1.67188,19.72656 16.9414,15.20508 -14.11914,20.41797 1.08594,10.85937 0.86914,14.98828 14.77149,19.76563 L 248,380.61719 235.37891,406.81836 c 0,0 -3.6211,15.19117 -3.6211,15.86328 0,3.47531 14.11914,23.02539 14.11914,23.02539 0,0 6.08181,12.16257 -5.21289,29.53906 -11.2947,17.37646 -0.86914,39.09766 -0.86914,39.09766 v 20.85156 16.50781 l -6.95117,19.11329 19.98437,7.82031 -4.88476,11.71875 c 3.93821,0.28708 7.88533,0.43495 11.83398,0.44336 1.88191,-0.0386 3.76304,-0.10896 5.64258,-0.21094 l 0.006,-0.22266 0.4336,-15.20507 -19.11329,-18.24414 4.34375,-14.76954 6.95118,-36.49218 0.86914,-21.72071 -4.34571,-43.43945 -15.63867,-16.50781 8.81055,-27.2168 7.06445,-30.66797 4.97656,-7.06054 -5.21289,-7.16797 -17.375,-28.66993 3.47461,-18.24609 20.85156,-10.42578 -20.85156,-23.45898 z m 44.53711,0.73242 0.20703,9.35157 -6.51562,15.63867 3.47461,19.98242 0.43554,15.64062 10.42579,3.90821 -3.91016,16.07422 4.77734,23.45703 6.51758,14.77148 v 21.28516 l 10.85938,13.46679 -6.08204,12.59766 v 30.84375 l 11.73047,3.04102 -6.08203,19.98242 v 13.90234 l 3.91016,23.89258 -2.60742,7.38477 6.51562,14.76953 v 14.33593 l 6.95117,13.03126 -9.12304,9.99218 1.44726,5.5 a 167.68288,167.68288 0 0 0 0.0156,-0.006 c 2.5097,-0.93197 4.98596,-1.94935 7.44726,-3 a 167.68288,167.68288 0 0 0 2.22657,-0.97265 c 2.4237,-1.0764 4.83428,-2.18246 7.20507,-3.37305 l 0.77344,-2.49219 -3.47656,-19.54883 -6.51563,-8.6875 1.73829,-9.99218 -4.7793,-17.81055 -3.04102,-9.99219 0.43555,-12.59765 3.9082,-20.41797 -3.9082,-28.23633 -7.82031,-1.30273 0.43554,-13.90235 v -9.55664 l -3.91015,-28.23633 3.47461,-16.07226 -5.21289,-33.88477 c 0,0 -10.86051,-12.59747 -11.29493,-14.76953 -0.4344,-2.17206 2.60743,-25.19727 2.60743,-25.19727 l -7.38477,-9.99023 -0.86914,-16.50781 3.9082,-9.55664 -3.09179,-5.74414 c -1.92697,-0.36769 -3.86015,-0.70211 -5.79883,-1.00196 a 167.68288,167.68288 0 0 0 -0.004,0 z m 42.80078,12.57617 -3.93164,5.89844 c 0,0 22.15644,14.76904 19.98438,16.07227 -2.17206,1.30324 -11.29492,9.55859 -11.29492,9.55859 0,0 7.81836,13.46661 7.81835,15.63867 v 16.94141 6.51562 c 0,1.73764 -2.60546,13.4668 -2.60546,13.4668 0,0 13.46679,4.77994 13.46679,6.51758 0,1.73765 -8.2539,18.24509 -8.2539,20.85156 0,2.60648 7.81836,19.54883 7.81836,19.54883 l 18.67968,13.90039 c 0,0 -8.68781,17.37595 -9.55664,19.98242 -0.86882,2.60644 0,11.72852 0,11.72852 l 3.91016,16.50781 v 13.4668 c 0,2.17205 -4.34375,9.99219 -4.34375,9.99219 0,0 6.51562,3.90884 6.51562,5.64648 v 14.77148 c 0,20.41735 -0.86914,22.15494 -0.86914,23.89258 v 8.25391 l -6.51562,9.99023 7.10742,3.74024 a 167.68288,167.68288 0 0 0 0.18359,-0.15821 c 2.70627,-2.19772 5.34805,-4.47378 7.91211,-6.83593 l 0.43555,-7.60547 -0.86914,-25.63086 -3.91016,-9.99024 0.86914,-13.90234 -0.86914,-13.03125 v -12.59961 l 0.86914,-12.59765 -5.21289,-19.54883 9.99219,-2.17188 v -18.24414 l -13.0332,-15.63867 -10.85938,-21.7207 7.81836,-11.29493 -9.55664,-20.41796 1.73828,-13.03125 -9.12304,-23.45899 4.34375,-10.86133 0.43554,-13.90039 -8.2539,-3.04101 -0.56641,-2.20703 c -3.36677,-1.78091 -6.79323,-3.44659 -10.27344,-4.99415 z m -147.58984,5.58008 c -0.002,9.5e-4 -0.004,10e-4 -0.006,0.002 -2.71988,1.45392 -5.39093,2.99667 -8.02539,4.59765 a 167.68288,167.68288 0 0 0 -1.55274,0.97657 c -2.40745,1.49934 -4.79377,3.03212 -7.12304,4.65234 -0.005,0.004 -0.0106,0.006 -0.0156,0.01 v 0.002 l -0.51757,8.64258 -1.57032,26.17968 18.24414,1.73828 -15.63867,28.66993 14.77149,8.68945 -18.2461,30.4082 5.21289,6.08203 -8.6875,26.9336 h 18.24414 l -8.6875,30.4082 4.34375,5.21289 -16.50781,37.35938 13.0332,1.73828 -8.68945,25.19531 15.63867,6.08203 -8.63672,32.97461 c 6.41364,4.32816 13.12315,8.19951 20.07227,11.60156 a 167.68288,167.68288 0 0 0 0.24414,0.12891 l 0.48438,-3.87109 -0.86915,-27.80079 -4.34375,-33.88476 9.55664,-14.76953 -14.76953,-17.37696 8.6875,-19.11328 0.86914,-17.37695 v -15.63867 l -6.08203,-13.90235 -1.73632,-16.50781 1.73632,-13.03125 7.82032,-19.11523 -0.86914,-6.08008 -0.86915,-15.64063 v -37.35937 l -7.81835,2.60742 -2.60743,-19.98242 z m 202.44727,33.70508 -0.14258,5.27539 -3.04102,13.03321 7.38477,10.42578 v 13.90039 c 0,0 1.41544,1.89053 2.33398,3.58007 l 0.63672,5.80079 v 0.006 c -0.40278,6.99052 -1.66797,20.15429 -1.66797,20.15429 l 3.91016,1.30274 0.46289,3.24414 0.83789,7.64844 1.30664,11.92382 v 0.004 1.94141 c 0,2.17205 -3.47656,13.46679 -3.47656,13.46679 l 5.33593,1.57031 0.3418,3.11915 0.66992,6.10937 c -1.23915,1.08915 -2.19617,2.06476 -2.4375,2.66797 -0.8688,2.17206 -5.64767,3.03983 -0.86914,7.81836 1.83772,1.83772 3.60497,3.92635 5.0918,5.80859 v 0.002 l 1.54101,14.08398 -2.28906,7.9082 3.49024,3.05274 0.77539,7.08398 c -3.21457,4.90961 -10.24805,13.7148 -10.24805,15.18946 0,2.17203 -7.02529,11.95819 1.22852,12.39257 3.88335,0.20439 6.86126,1.29346 8.96289,2.38672 a 167.68288,167.68288 0 0 0 0,-0.002 c 1.6499,-2.72703 3.22303,-5.49979 4.71484,-8.31641 a 167.68288,167.68288 0 0 0 0.01,-0.0195 l -2.50586,-1.90625 3.99804,-12.05078 c 0,0 3.47635,-17.80972 5.64844,-18.24414 2.17206,-0.43442 0.43359,-12.16406 0.4336,-12.16406 l -1.73633,-13.4668 4.77734,-8.25391 -5.21289,-19.54882 -11.29492,-26.49805 -4.77735,-27.80274 v -11.29492 l -6.95117,-21.28711 -1.30273,-7.81836 -1.87695,-7.65234 a 167.68288,167.68288 0 0 0 0,-0.002 c -0.01,-0.0112 -0.0197,-0.022 -0.0293,-0.0332 -1.31017,-1.52905 -2.64734,-3.03475 -4.01172,-4.51562 a 167.68288,167.68288 0 0 0 -0.0215,-0.0234 z m -257.81641,14.25586 a 167.68288,167.68288 0 0 0 -17.11328,28.63672 c -6.4e-4,0.001 -10e-4,0.003 -0.002,0.004 l 9.36329,6.68945 -10.42579,21.7207 6.95118,8.6875 -12.16407,27.80274 8.6875,9.55664 -9.55664,30.41015 14.76953,6.08008 c 0,0 2.60717,0.001 -3.47461,14.77149 -6.08173,14.76997 -0.86914,20.85156 -0.86914,20.85156 0,0 -0.0507,0.99026 -0.0879,1.74609 a 167.68288,167.68288 0 0 0 13.64063,21.90821 l -0.0937,-1.06446 -2.60742,-27.80273 -7.81836,-10.42578 8.6875,-37.35938 -9.55664,-14.77148 -0.86914,-15.63867 12.16406,-25.19532 -3.47656,-36.49023 6.95117,-26.06445 z"
         transform="scale(0.26458333)" />
      <path
         id="path40071"
         style="opacity:0.95;fill:url(#linearGradient40081);fill-opacity:1;stroke-width:1.13386"
         d="M 259.77734,255.43359 A 167.68288,167.68288 0 0 0 92.117188,422.55273 c 0.0064,0.62908 0.01271,1.25753 0.02734,1.85743 a 167.68288,167.68288 0 0 0 0.08984,2.43945 c 3.635866,77.6688 85.700592,-119.54883 176.232422,-119.54883 66.45564,-11.22582 77.05135,-24.14325 65.56836,-34.51953 a 167.68288,167.68288 0 0 0 -74.25782,-17.34766 z"
         transform="scale(0.26458333)" />
      <path
         id="path40073"
         style="opacity:0.95;fill:url(#linearGradient40083);fill-opacity:1;stroke-width:1.00428"
         d="m 244.14062,257.39258 c -0.50038,0.005 -1.02378,0.0187 -1.57031,0.0371 -4.32238,0 -8.61573,0.29717 -12.875,0.83984 a 167.68288,167.68288 0 0 0 -38.1914,11.81445 c -39.66393,19.45667 -72.43852,58.06945 -88.01563,92.34375 a 167.68288,167.68288 0 0 0 -9.771483,37.92579 c 0.0032,1.93692 0.105249,3.81134 0.333984,5.5957 5.277725,41.17141 18.959119,-120.66992 100.984379,-120.66992 21.5803,-3.33808 80.62941,-28.23298 49.10546,-27.88672 z"
         transform="scale(0.26458333)" />
      <path
         id="path40075"
         style="opacity:0.95;fill:url(#linearGradient40085);fill-opacity:1;stroke-width:1.13386"
         d="m 417.86523,390.69531 c -22.73738,0.38434 -82.90597,143.82866 -158.68945,149.1211 -62.63571,15.13332 -74.2278,28.25417 -64.48242,37.72461 a 167.68288,167.68288 0 0 0 65.08398,13.25781 167.68288,167.68288 0 0 0 167.6836,-167.68164 167.68288,167.68288 0 0 0 -0.17774,-7.48438 c -0.033,-0.54769 -0.0554,-1.094 -0.0937,-1.64258 -1.15929,-16.60019 -4.34364,-23.3791 -9.32422,-23.29492 z"
         transform="scale(0.26458333)" />
      <path
         id="path40077"
         style="opacity:0.95;fill:#000000;fill-opacity:0;stroke-width:0.3"
         d="m 113.09908,111.94968 a 44.366096,44.366096 0 0 1 -44.366101,44.36609 44.366096,44.366096 0 0 1 -44.366097,-44.36609 44.366096,44.366096 0 0 1 44.366097,-44.3661 44.366096,44.366096 0 0 1 44.366101,44.3661 z" />
    </g>
    <ellipse
       style="opacity:0.95;fill:#000000;fill-opacity:0.585973;stroke:none;stroke-width:0.3;filter:url(#filter37768)"
       id="path37546"
       cx="89.482117"
       cy="159.82169"
       rx="33.403408"
       ry="8.9400845"
       transform="matrix(1.129958,0,0,0.32848665,9.5196883,108.93152)" />
    <ellipse
       style="opacity:0.95;fill:#000000;fill-opacity:0.585973;stroke:none;stroke-width:0.3;filter:url(#filter37768)"
       id="ellipse38072"
       cx="138.08366"
       cy="166.64867"
       rx="33.403408"
       ry="8.9400845"
       transform="matrix(0.76574471,0,0,0.17008447,44.582434,139.35942)" />
    <g
       id="g34615"
       transform="translate(20.059504,4.1377709)">
      <path
         id="path858"
         style="opacity:0.95;fill:#008c39;fill-opacity:1;stroke-width:0.3"
         d="m 113.09908,111.94968 a 44.366096,44.366096 0 0 1 -44.366101,44.36609 44.366096,44.366096 0 0 1 -44.366097,-44.36609 44.366096,44.366096 0 0 1 44.366097,-44.3661 44.366096,44.366096 0 0 1 44.366101,44.3661 z" />
      <path
         id="path5505"
         style="fill:#033401;fill-opacity:0.384615;stroke:none;stroke-width:0.999999px;stroke-linecap:butt;stroke-linejoin:miter;stroke-opacity:1"
         d="m 249.32031,255.82422 a 167.68288,167.68288 0 0 0 -27.84375,4.08008 l 0.94141,15.07812 10.42578,16.94141 -2.60547,29.10547 -2.17187,19.54882 11.72851,19.11524 -1.30273,22.1543 -11.29492,30.4082 0.86914,29.97461 7.38476,10.42578 -9.12305,43.87695 5.2129,35.6211 -5.2129,33.44922 6.08204,10.86132 5.95703,12.86524 a 167.68288,167.68288 0 0 0 21.41015,1.46875 167.68288,167.68288 0 0 0 11.51172,-0.42969 l 2.82422,-11.29883 -5.21289,-14.76953 L 255,554.74414 l 9.99023,-29.97461 c 0,0 -3.03906,-36.92511 -3.03906,-40.40039 0,-3.47531 -3.91015,-47.35156 -3.91015,-47.35156 l -14.33594,-23.02344 16.07226,-28.23633 10.42578,-14.76953 -9.55664,-25.19726 -13.46679,-25.62891 8.2539,-11.73047 9.12305,-20.85156 -13.90039,-16.07227 z m 28.33789,0.57226 -0.9375,12.50391 -2.60742,14.76953 3.04102,19.54883 3.04101,23.89258 6.51563,7.82031 -0.4336,21.7207 2.17188,21.72071 7.38476,11.29492 v 24.76172 l 2.60743,15.20312 -2.17188,29.10547 7.38477,4.34375 v 18.67969 c 0,0 -0.43555,21.28689 -0.43555,23.45898 0,2.17206 -2.17188,20.85157 -2.17187,20.85157 l 7.82031,11.72851 0.86914,17.8125 c 0,0 -4.7793,13.90104 -4.7793,15.63867 0,1.46086 2.67419,9.38423 3.65235,12.25782 a 167.68288,167.68288 0 0 0 36.26953,-15.9668 c 0.20662,-0.73397 0.47851,-1.59092 0.47851,-1.93945 0,-2.17206 -9.12305,-16.50782 -9.12304,-16.50782 l -6.51563,-11.29492 c 0,0 4.34375,-18.24378 4.34375,-22.58789 0,-4.34411 -8.6875,-10.86115 -8.6875,-13.0332 0,-2.17206 0.86719,-24.76172 0.86719,-24.76172 l -0.86719,-30.4082 -9.99219,-17.81055 0.86914,-9.99219 v -21.28515 -13.4668 l 4.34375,-21.7207 -5.21289,-27.80274 -7.82031,-8.68945 -3.47461,-16.94141 v -16.50781 l -7.81836,-9.55664 0.86719,-6.95117 2.15039,-16.11914 a 167.68288,167.68288 0 0 0 -21.62891,-3.76954 z m 43.67774,10.75977 -0.30664,2.61328 -5.64649,11.72852 13.90039,4.3457 -1.73632,19.98242 3.04101,9.12305 v 28.23633 l 2.17188,20.85156 7.81835,2.17187 -1.73632,23.02344 6.94922,17.37696 13.90234,9.99218 -5.64844,6.94922 -2.17187,19.98438 2.60742,23.89257 -2.17188,23.02344 4.77735,7.81836 c 0,0 -0.86914,14.33654 -0.86914,16.07422 v 17.37695 l -3.04102,15.63868 4.83203,11.52148 a 167.68288,167.68288 0 0 0 25.37305,-22.50195 c -0.12302,-1.68835 -0.44797,-3.90846 -1.09766,-6.83203 -2.60647,-11.72913 -3.04101,-24.32618 -3.04101,-24.32618 l -4.34571,-8.2539 v -17.37696 -20.41601 l -6.08007,-23.02539 10.85937,-10.85938 0.4336,-21.28711 -12.16211,-15.20312 -9.5586,-17.37695 3.47656,-10.42579 -5.64843,-25.63086 3.47656,-14.33593 -10.42578,-15.63868 4.77734,-13.46679 -1.76172,-8.65235 a 167.68288,167.68288 0 0 0 -30.94726,-16.11523 z m -135.81055,5.67383 a 167.68288,167.68288 0 0 0 -31.37695,20.11914 l -1.23633,10.70508 5.21289,9.55664 -4.34375,13.03125 15.20508,3.47656 -4.7793,10.42578 -11.29492,16.50781 15.20508,3.91016 -10.85938,10.85938 -2.17383,19.54882 0.86914,11.72852 -7.38476,19.11523 7.82031,6.94922 15.63867,0.86914 -10.42578,16.50781 -1.30273,13.9004 -2.60742,13.46679 -7.82032,6.95117 1.73829,11.29493 -1.30274,16.07421 11.29492,2.60547 -7.38476,14.76953 5.64648,6.51758 2.60742,19.11328 0.63282,9.19336 a 167.68288,167.68288 0 0 0 28.46484,16.14844 l 1.74414,-6.22851 -6.08203,-46.91602 6.95117,-11.29492 1.73828,-23.45703 -12.16406,-13.90235 13.0332,-27.36718 -6.95117,-33.88477 -2.60742,-19.54883 7.38672,-19.11328 -1.30469,-27.80273 -3.47461,-26.06446 1.30273,-8.6875 -6.94921,-21.7207 2.17187,-12.16406 z m 193.72266,32.63672 -2.34375,1.70898 2.76367,8.9082 -4.60742,16.2793 6.75781,4.91602 0.61523,9.52148 v 14.4375 8.9082 l -0.30664,8.90821 2.45703,6.45117 6.14258,3.99219 -1.84179,18.12304 c 0,0 0.61328,9.8297 0.61328,12.28711 0,2.45741 0.30664,7.06641 0.30664,7.06641 l 3.6875,0.61328 -3.07227,6.45117 -0.30664,9.52149 3.68555,4.30078 c 0,0 1.53515,7.06498 1.53515,10.13672 v 9.52343 c 0,1.22869 1.84375,8.90821 1.84375,8.90821 l -9.21484,18.42969 v 7.67968 l 0.30664,11.0586 10.44336,-1.53711 2.69336,0.61328 a 167.68288,167.68288 0 0 0 14.24219,-27.78906 l 0.57422,-6.30469 2.76367,-13.20899 -1.22852,-12.28711 v -7.67968 l 3.6875,-9.83008 0.30664,-14.74414 -20.58007,-55.90625 0.61328,-17.20117 -9.83008,-26.10938 -0.44922,-2.24609 A 167.68288,167.68288 0 0 0 379.24805,305.4668 Z m -249.19922,11.50976 a 167.68288,167.68288 0 0 0 -23.6836,38.74024 l 1.14649,1.52734 -4.30078,14.13086 -0.30664,14.4375 -6.451175,8.60156 2.763672,8.29297 -5.220703,15.66602 0.921875,10.13672 0.30664,12.28711 2.763672,7.67968 v 16.2793 l 7.066409,2.15039 -1.53711,12.59375 v 4.39258 a 167.68288,167.68288 0 0 0 23.04492,40.90625 l 4.60156,-7.82227 -0.92187,-17.8164 -4.60742,-12.28711 6.14257,-13.51563 -7.37109,-9.21484 6.45117,-19.35352 -8.60156,-15.05078 -2.45703,-14.13086 10.75,-12.59375 v -21.80859 l -2.76367,-23.03906 0.61328,-13.20899 9.21679,-9.21484 z"
         transform="scale(0.26458333)" />
      <path
         id="path1475"
         style="fill:#000000;fill-opacity:0.506787;stroke:none;stroke-width:0.999999px;stroke-linecap:butt;stroke-linejoin:miter;stroke-opacity:1"
         d="m 240.66406,256.64453 c -4.4931,0.51432 -8.96355,1.21021 -13.40039,2.08594 l 1.67188,19.72656 16.9414,15.20508 -14.11914,20.41797 1.08594,10.85937 0.86914,14.98828 14.77149,19.76563 L 248,380.61719 235.37891,406.81836 c 0,0 -3.6211,15.19117 -3.6211,15.86328 0,3.47531 14.11914,23.02539 14.11914,23.02539 0,0 6.08181,12.16257 -5.21289,29.53906 -11.2947,17.37646 -0.86914,39.09766 -0.86914,39.09766 v 20.85156 16.50781 l -6.95117,19.11329 19.98437,7.82031 -4.88476,11.71875 c 3.93821,0.28708 7.88533,0.43495 11.83398,0.44336 1.88191,-0.0386 3.76304,-0.10896 5.64258,-0.21094 l 0.006,-0.22266 0.4336,-15.20507 -19.11329,-18.24414 4.34375,-14.76954 6.95118,-36.49218 0.86914,-21.72071 -4.34571,-43.43945 -15.63867,-16.50781 8.81055,-27.2168 7.06445,-30.66797 4.97656,-7.06054 -5.21289,-7.16797 -17.375,-28.66993 3.47461,-18.24609 20.85156,-10.42578 -20.85156,-23.45898 z m 44.53711,0.73242 0.20703,9.35157 -6.51562,15.63867 3.47461,19.98242 0.43554,15.64062 10.42579,3.90821 -3.91016,16.07422 4.77734,23.45703 6.51758,14.77148 v 21.28516 l 10.85938,13.46679 -6.08204,12.59766 v 30.84375 l 11.73047,3.04102 -6.08203,19.98242 v 13.90234 l 3.91016,23.89258 -2.60742,7.38477 6.51562,14.76953 v 14.33593 l 6.95117,13.03126 -9.12304,9.99218 1.44726,5.5 a 167.68288,167.68288 0 0 0 0.0156,-0.006 c 2.5097,-0.93197 4.98596,-1.94935 7.44726,-3 a 167.68288,167.68288 0 0 0 2.22657,-0.97265 c 2.4237,-1.0764 4.83428,-2.18246 7.20507,-3.37305 l 0.77344,-2.49219 -3.47656,-19.54883 -6.51563,-8.6875 1.73829,-9.99218 -4.7793,-17.81055 -3.04102,-9.99219 0.43555,-12.59765 3.9082,-20.41797 -3.9082,-28.23633 -7.82031,-1.30273 0.43554,-13.90235 v -9.55664 l -3.91015,-28.23633 3.47461,-16.07226 -5.21289,-33.88477 c 0,0 -10.86051,-12.59747 -11.29493,-14.76953 -0.4344,-2.17206 2.60743,-25.19727 2.60743,-25.19727 l -7.38477,-9.99023 -0.86914,-16.50781 3.9082,-9.55664 -3.09179,-5.74414 c -1.92697,-0.36769 -3.86015,-0.70211 -5.79883,-1.00196 a 167.68288,167.68288 0 0 0 -0.004,0 z m 42.80078,12.57617 -3.93164,5.89844 c 0,0 22.15644,14.76904 19.98438,16.07227 -2.17206,1.30324 -11.29492,9.55859 -11.29492,9.55859 0,0 7.81836,13.46661 7.81835,15.63867 v 16.94141 6.51562 c 0,1.73764 -2.60546,13.4668 -2.60546,13.4668 0,0 13.46679,4.77994 13.46679,6.51758 0,1.73765 -8.2539,18.24509 -8.2539,20.85156 0,2.60648 7.81836,19.54883 7.81836,19.54883 l 18.67968,13.90039 c 0,0 -8.68781,17.37595 -9.55664,19.98242 -0.86882,2.60644 0,11.72852 0,11.72852 l 3.91016,16.50781 v 13.4668 c 0,2.17205 -4.34375,9.99219 -4.34375,9.99219 0,0 6.51562,3.90884 6.51562,5.64648 v 14.77148 c 0,20.41735 -0.86914,22.15494 -0.86914,23.89258 v 8.25391 l -6.51562,9.99023 7.10742,3.74024 a 167.68288,167.68288 0 0 0 0.18359,-0.15821 c 2.70627,-2.19772 5.34805,-4.47378 7.91211,-6.83593 l 0.43555,-7.60547 -0.86914,-25.63086 -3.91016,-9.99024 0.86914,-13.90234 -0.86914,-13.03125 v -12.59961 l 0.86914,-12.59765 -5.21289,-19.54883 9.99219,-2.17188 v -18.24414 l -13.0332,-15.63867 -10.85938,-21.7207 7.81836,-11.29493 -9.55664,-20.41796 1.73828,-13.03125 -9.12304,-23.45899 4.34375,-10.86133 0.43554,-13.90039 -8.2539,-3.04101 -0.56641,-2.20703 c -3.36677,-1.78091 -6.79323,-3.44659 -10.27344,-4.99415 z m -147.58984,5.58008 c -0.002,9.5e-4 -0.004,10e-4 -0.006,0.002 -2.71988,1.45392 -5.39093,2.99667 -8.02539,4.59765 a 167.68288,167.68288 0 0 0 -1.55274,0.97657 c -2.40745,1.49934 -4.79377,3.03212 -7.12304,4.65234 -0.005,0.004 -0.0106,0.006 -0.0156,0.01 v 0.002 l -0.51757,8.64258 -1.57032,26.17968 18.24414,1.73828 -15.63867,28.66993 14.77149,8.68945 -18.2461,30.4082 5.21289,6.08203 -8.6875,26.9336 h 18.24414 l -8.6875,30.4082 4.34375,5.21289 -16.50781,37.35938 13.0332,1.73828 -8.68945,25.19531 15.63867,6.08203 -8.63672,32.97461 c 6.41364,4.32816 13.12315,8.19951 20.07227,11.60156 a 167.68288,167.68288 0 0 0 0.24414,0.12891 l 0.48438,-3.87109 -0.86915,-27.80079 -4.34375,-33.88476 9.55664,-14.76953 -14.76953,-17.37696 8.6875,-19.11328 0.86914,-17.37695 v -15.63867 l -6.08203,-13.90235 -1.73632,-16.50781 1.73632,-13.03125 7.82032,-19.11523 -0.86914,-6.08008 -0.86915,-15.64063 v -37.35937 l -7.81835,2.60742 -2.60743,-19.98242 z m 202.44727,33.70508 -0.14258,5.27539 -3.04102,13.03321 7.38477,10.42578 v 13.90039 c 0,0 1.41544,1.89053 2.33398,3.58007 l 0.63672,5.80079 v 0.006 c -0.40278,6.99052 -1.66797,20.15429 -1.66797,20.15429 l 3.91016,1.30274 0.46289,3.24414 0.83789,7.64844 1.30664,11.92382 v 0.004 1.94141 c 0,2.17205 -3.47656,13.46679 -3.47656,13.46679 l 5.33593,1.57031 0.3418,3.11915 0.66992,6.10937 c -1.23915,1.08915 -2.19617,2.06476 -2.4375,2.66797 -0.8688,2.17206 -5.64767,3.03983 -0.86914,7.81836 1.83772,1.83772 3.60497,3.92635 5.0918,5.80859 v 0.002 l 1.54101,14.08398 -2.28906,7.9082 3.49024,3.05274 0.77539,7.08398 c -3.21457,4.90961 -10.24805,13.7148 -10.24805,15.18946 0,2.17203 -7.02529,11.95819 1.22852,12.39257 3.88335,0.20439 6.86126,1.29346 8.96289,2.38672 a 167.68288,167.68288 0 0 0 0,-0.002 c 1.6499,-2.72703 3.22303,-5.49979 4.71484,-8.31641 a 167.68288,167.68288 0 0 0 0.01,-0.0195 l -2.50586,-1.90625 3.99804,-12.05078 c 0,0 3.47635,-17.80972 5.64844,-18.24414 2.17206,-0.43442 0.43359,-12.16406 0.4336,-12.16406 l -1.73633,-13.4668 4.77734,-8.25391 -5.21289,-19.54882 -11.29492,-26.49805 -4.77735,-27.80274 v -11.29492 l -6.95117,-21.28711 -1.30273,-7.81836 -1.87695,-7.65234 a 167.68288,167.68288 0 0 0 0,-0.002 c -0.01,-0.0112 -0.0197,-0.022 -0.0293,-0.0332 -1.31017,-1.52905 -2.64734,-3.03475 -4.01172,-4.51562 a 167.68288,167.68288 0 0 0 -0.0215,-0.0234 z m -257.81641,14.25586 a 167.68288,167.68288 0 0 0 -17.11328,28.63672 c -6.4e-4,0.001 -10e-4,0.003 -0.002,0.004 l 9.36329,6.68945 -10.42579,21.7207 6.95118,8.6875 -12.16407,27.80274 8.6875,9.55664 -9.55664,30.41015 14.76953,6.08008 c 0,0 2.60717,0.001 -3.47461,14.77149 -6.08173,14.76997 -0.86914,20.85156 -0.86914,20.85156 0,0 -0.0507,0.99026 -0.0879,1.74609 a 167.68288,167.68288 0 0 0 13.64063,21.90821 l -0.0937,-1.06446 -2.60742,-27.80273 -7.81836,-10.42578 8.6875,-37.35938 -9.55664,-14.77148 -0.86914,-15.63867 12.16406,-25.19532 -3.47656,-36.49023 6.95117,-26.06445 z"
         transform="scale(0.26458333)" />
      <path
         id="path11030"
         style="opacity:0.95;fill:url(#linearGradient13271);fill-opacity:1;stroke-width:1.13386"
         d="M 259.77734,255.43359 A 167.68288,167.68288 0 0 0 92.117188,422.55273 c 0.0064,0.62908 0.01271,1.25753 0.02734,1.85743 a 167.68288,167.68288 0 0 0 0.08984,2.43945 c 3.635866,77.6688 85.700592,-119.54883 176.232422,-119.54883 66.45564,-11.22582 77.05135,-24.14325 65.56836,-34.51953 a 167.68288,167.68288 0 0 0 -74.25782,-17.34766 z"
         transform="scale(0.26458333)" />
      <path
         id="path11853"
         style="opacity:0.95;fill:url(#linearGradient13639);fill-opacity:1;stroke-width:1.00428"
         d="m 244.14062,257.39258 c -0.50038,0.005 -1.02378,0.0187 -1.57031,0.0371 -4.32238,0 -8.61573,0.29717 -12.875,0.83984 a 167.68288,167.68288 0 0 0 -38.1914,11.81445 c -39.66393,19.45667 -72.43852,58.06945 -88.01563,92.34375 a 167.68288,167.68288 0 0 0 -9.771483,37.92579 c 0.0032,1.93692 0.105249,3.81134 0.333984,5.5957 5.277725,41.17141 18.959119,-120.66992 100.984379,-120.66992 21.5803,-3.33808 80.62941,-28.23298 49.10546,-27.88672 z"
         transform="scale(0.26458333)" />
      <path
         id="path16317"
         style="opacity:0.95;fill:url(#linearGradient16319);fill-opacity:1;stroke-width:1.13386"
         d="m 417.86523,390.69531 c -22.73738,0.38434 -82.90597,143.82866 -158.68945,149.1211 -62.63571,15.13332 -74.2278,28.25417 -64.48242,37.72461 a 167.68288,167.68288 0 0 0 65.08398,13.25781 167.68288,167.68288 0 0 0 167.6836,-167.68164 167.68288,167.68288 0 0 0 -0.17774,-7.48438 c -0.033,-0.54769 -0.0554,-1.094 -0.0937,-1.64258 -1.15929,-16.60019 -4.34364,-23.3791 -9.32422,-23.29492 z"
         transform="scale(0.26458333)" />
      <path
         id="path19170"
         style="opacity:0.95;fill:#000000;fill-opacity:0;stroke-width:0.3"
         d="m 113.09908,111.94968 a 44.366096,44.366096 0 0 1 -44.366101,44.36609 44.366096,44.366096 0 0 1 -44.366097,-44.36609 44.366096,44.366096 0 0 1 44.366097,-44.3661 44.366096,44.366096 0 0 1 44.366101,44.3661 z" />
    </g>
    <path
       id="path35078"
       style="opacity:0.95;mix-blend-mode:normal;fill:#0d0000;fill-opacity:0.33031699;stroke-width:0.3;filter:url(#filter37358)"
       d="m 91.289347,127.8729 c 1.07991,9.86591 5.34092,18.78347 11.693853,25.68784 a 26.657707,22.756578 0 0 0 26.4697,-22.75107 26.657707,22.756578 0 0 0 -0.22479,-2.93677 z"
       transform="matrix(0.97026454,0,0,1.1015651,3.7695771,-12.910264)" />
    <g
       id="g34655"
       transform="translate(-21.857956,-7.2016584)">
      <path
         id="path23823"
         style="opacity:0.95;fill:#008c39;fill-opacity:1;stroke-width:0.3"
         d="m 114.54306,134.2476 c 2.46153,22.48825 21.44917,40.05206 44.07173,40.06785 22.62236,-0.0161 41.60971,-17.5798 44.07121,-40.06785 z"
         sodipodi:nodetypes="cccc" />
      <path
         id="path24748"
         style="opacity:0.95;fill:#cc2f35;fill-opacity:1;stroke-width:1.00966"
         d="m 442.2793,507.39258 c 9.28859,74.7771 78.75836,135.93174 154.22265,135.98437 75.15412,-0.0533 154.66871,-61.60357 164.67578,-135.98437 z"
         transform="scale(0.26458333)" />
      <path
         id="path25389"
         style="fill:#000000;fill-opacity:0.506787;stroke:none;stroke-width:0.999999px;stroke-linecap:butt;stroke-linejoin:miter;stroke-opacity:1"
         d="m 438.53906,525.85547 v 5.42969 l -0.99609,0.92578 c 0.75811,2.87907 1.59981,5.72343 2.50195,8.54101 l 5.66211,-3.60156 2.33789,-3.86328 c -0.70472,-2.19323 -1.35881,-4.40415 -1.95898,-6.63281 l -1.6836,2.24218 z m 318.64844,11.70117 -4.09766,0.0684 c -2.03392,5.08117 -4.3641,10.06119 -6.99609,14.91602 l 0.0352,0.0684 6.33789,5.14062 c 1.90946,-4.31324 3.65916,-8.71255 5.21484,-13.20508 l -0.1875,-0.84375 z m -291.04688,33.21875 -0.0176,0.041 -7.38477,2.39062 -1.17578,5.48633 c 2.04278,3.29259 4.19805,6.50551 6.45117,9.64258 l 1.02344,-0.57617 1.08594,-8.68946 4.8457,-1.35351 c -1.67742,-2.26752 -3.27313,-4.59043 -4.82813,-6.94141 z m 257.56836,13.15625 c -1.97779,2.18436 -4.02619,4.31266 -6.11914,6.4043 l 4.88672,7.73437 c 0,0 0.77852,1.50506 1.97656,3.46875 2.95437,-3.36154 5.78495,-6.83488 8.47461,-10.42578 l -4.30859,-1.33594 z m -230.60546,18.12305 -1.13282,0.25781 -2.17187,6.51562 -4.45117,3.95508 c 2.61335,2.47822 5.27586,4.90155 8.03906,7.20899 l 6.4043,-6.60352 2.05273,-3.97656 c -2.99587,-2.35349 -5.91252,-4.80463 -8.74023,-7.35742 z m 201.34375,7.875 c -2.67038,1.91228 -5.37995,3.76793 -8.14649,5.53906 l 0.85156,13.62695 1.50586,3.3125 c 5.10547,-3.28767 10.01893,-6.85486 14.73828,-10.66601 -1.43019,-3.2119 -4.08453,-8.92774 -5.49414,-8.92774 -1.08182,0 -2.3965,-1.48619 -3.45507,-2.88476 z m -162.47657,18.28906 -7.31445,3.02734 -1.53711,8.59961 -0.002,0.0234 c 2.84967,1.49778 5.73053,2.93992 8.66992,4.27344 l 3.3125,-2.45313 6.14258,-6.45117 -0.97071,-3.29883 c -2.80278,-1.15752 -5.56798,-2.40408 -8.30078,-3.7207 z m 108.12891,8.54297 c -4.73637,1.40925 -9.51222,2.60741 -14.31055,3.57812 l -0.6875,4.42188 10.22852,10.03516 c 3.4051,-0.76654 6.78403,-1.60656 10.11133,-2.58204 l 3.3125,-8.99023 -7.67969,-3.99219 z m -73.42383,3.39453 -0.85937,5.83398 -7.3711,1.8418 0.24024,5.77735 c 5.92761,1.53006 11.96893,2.74836 18.11718,3.61132 l 0.37891,-1.09375 c 0,0 2.7649,-4.91563 4.30078,-7.37304 1.43563,-2.297 -2.36937,-6.07195 -2.88867,-6.57227 -4.0059,-0.51301 -7.98081,-1.18542 -11.91797,-2.02539 z"
         transform="scale(0.26458333)" />
      <path
         id="path33050"
         style="opacity:0.95;fill:#00dc2f;fill-opacity:1;stroke-width:0.267139"
         d="m 117.01973,134.24762 c 2.45761,19.78477 20.83815,36.49444 40.80474,36.50836 19.88453,-0.0141 40.92276,-16.82845 43.57047,-36.50836 h -0.0791 c -2.94999,19.44151 -23.78561,35.96522 -43.49141,35.9792 -19.78802,-0.0138 -38.01564,-16.43625 -40.73239,-35.9792 z"
         sodipodi:nodetypes="ccccccc" />
      <path
         id="path28489"
         style="opacity:0.95;fill:#e4000b;fill-opacity:0.348416;stroke-width:1.00966"
         d="m 450.73438,540.98828 c 22.50895,58.66178 81.99491,102.3442 145.76757,102.38867 61.90714,-0.0439 126.73448,-41.83016 153.27149,-98.1289 -34.35434,48.16929 -94.58394,81.58007 -152.45117,81.62109 -59.87675,-0.0417 -116.29076,-35.2936 -146.58789,-85.88086 z"
         transform="scale(0.26458333)" />
      <path
         id="path25834"
         style="opacity:0.95;fill:#000000;fill-opacity:1;stroke-width:1.00966"
         d="m 442.2793,507.39258 c 9.28859,74.7771 78.75836,135.93174 154.22265,135.98437 75.15412,-0.0533 154.66871,-61.60357 164.67578,-135.98437 h -0.29882 C 749.72934,580.87231 670.98054,641.32414 596.50195,641.37695 521.71257,641.32478 452.82078,581.2557 442.55273,507.39258 Z"
         transform="scale(0.26458333)" />
      <path
         id="path30417"
         style="opacity:0.95;fill:#b28789;fill-opacity:0.463801;stroke-width:1.00966"
         d="m 533.50195,507.39258 c 8.42385,9.17412 18.06213,17.26046 28.8086,23.89062 58.22752,35.81113 148.06319,27.60631 194.41797,-22.31836 0.23924,-0.52745 0.50698,-1.04099 0.73828,-1.57226 z"
         transform="scale(0.26458333)" />
      <path
         id="path30423"
         style="opacity:0.95;fill:#b28789;fill-opacity:0.463801;stroke-width:1.00966"
         d="m 607.34961,507.39258 c 44.45552,20.9871 99.16208,23.57816 140.34375,0.76758 0.23801,-0.25928 0.48146,-0.51322 0.72461,-0.76758 z"
         transform="scale(0.26458333)" />
      <g
         id="g32562">
        <path
           id="rect30756"
           style="opacity:0.95;fill:#000000;fill-opacity:1;stroke-width:0.10897"
           d="m 122.12566,139.81039 -0.55721,-0.52136 c -0.6175,-0.57756 0.38148,-1.37825 1.30683,-1.76368 0.92531,-0.38548 2.07006,-0.54206 2.95308,-0.11966 l 0.48739,0.23319 c 0.88311,0.42231 0.60388,1.03724 -1.81587,2.13437 -0.9001,0.40807 -1.75675,0.61485 -2.37422,0.0372 z"
           sodipodi:nodetypes="sssssss" />
        <path
           id="path32155"
           style="opacity:0.95;fill:#ffffff;fill-opacity:1;stroke-width:0.0272484"
           d="m 123.61739,139.92911 -0.30878,0.0549 c -0.34218,0.0609 0.14129,-0.22093 0.60353,-0.44436 0.46221,-0.22344 1.04698,-0.46602 1.52002,-0.59574 l 0.2611,-0.0716 c 0.47306,-0.12974 0.35371,-0.01 -0.85141,0.58405 -0.44827,0.22089 -0.88228,0.41181 -1.22452,0.47256 z"
           sodipodi:nodetypes="sssssss" />
      </g>
      <g
         id="g32568"
         transform="rotate(-12.668056,171.73694,126.05237)">
        <path
           id="path32564"
           style="opacity:0.95;fill:#000000;fill-opacity:1;stroke-width:0.10897"
           d="m 122.12566,139.81039 -0.55721,-0.52136 c -0.6175,-0.57756 0.38148,-1.37825 1.30683,-1.76368 0.92531,-0.38548 2.07006,-0.54206 2.95308,-0.11966 l 0.48739,0.23319 c 0.88311,0.42231 0.60388,1.03724 -1.81587,2.13437 -0.9001,0.40807 -1.75675,0.61485 -2.37422,0.0372 z"
           sodipodi:nodetypes="sssssss" />
        <path
           id="path32566"
           style="opacity:0.95;fill:#ffffff;fill-opacity:1;stroke-width:0.0272484"
           d="m 123.61739,139.92911 -0.30878,0.0549 c -0.34218,0.0609 0.14129,-0.22093 0.60353,-0.44436 0.46221,-0.22344 1.04698,-0.46602 1.52002,-0.59574 l 0.2611,-0.0716 c 0.47306,-0.12974 0.35371,-0.01 -0.85141,0.58405 -0.44827,0.22089 -0.88228,0.41181 -1.22452,0.47256 z"
           sodipodi:nodetypes="sssssss" />
      </g>
      <g
         id="g32574"
         transform="rotate(-12.268054,151.4323,83.931631)">
        <path
           id="path32570"
           style="opacity:0.95;fill:#000000;fill-opacity:1;stroke-width:0.10897"
           d="m 122.12566,139.81039 -0.55721,-0.52136 c -0.6175,-0.57756 0.38148,-1.37825 1.30683,-1.76368 0.92531,-0.38548 2.07006,-0.54206 2.95308,-0.11966 l 0.48739,0.23319 c 0.88311,0.42231 0.60388,1.03724 -1.81587,2.13437 -0.9001,0.40807 -1.75675,0.61485 -2.37422,0.0372 z"
           sodipodi:nodetypes="sssssss" />
        <path
           id="path32572"
           style="opacity:0.95;fill:#ffffff;fill-opacity:1;stroke-width:0.0272484"
           d="m 123.61739,139.92911 -0.30878,0.0549 c -0.34218,0.0609 0.14129,-0.22093 0.60353,-0.44436 0.46221,-0.22344 1.04698,-0.46602 1.52002,-0.59574 l 0.2611,-0.0716 c 0.47306,-0.12974 0.35371,-0.01 -0.85141,0.58405 -0.44827,0.22089 -0.88228,0.41181 -1.22452,0.47256 z"
           sodipodi:nodetypes="sssssss" />
      </g>
      <g
         id="g32586"
         transform="rotate(-45.575015,150.56707,129.89871)">
        <path
           id="path32582"
           style="opacity:0.95;fill:#000000;fill-opacity:1;stroke-width:0.10897"
           d="m 122.12566,139.81039 -0.55721,-0.52136 c -0.6175,-0.57756 0.38148,-1.37825 1.30683,-1.76368 0.92531,-0.38548 2.07006,-0.54206 2.95308,-0.11966 l 0.48739,0.23319 c 0.88311,0.42231 0.60388,1.03724 -1.81587,2.13437 -0.9001,0.40807 -1.75675,0.61485 -2.37422,0.0372 z"
           sodipodi:nodetypes="sssssss" />
        <path
           id="path32584"
           style="opacity:0.95;fill:#ffffff;fill-opacity:1;stroke-width:0.0272484"
           d="m 123.61739,139.92911 -0.30878,0.0549 c -0.34218,0.0609 0.14129,-0.22093 0.60353,-0.44436 0.46221,-0.22344 1.04698,-0.46602 1.52002,-0.59574 l 0.2611,-0.0716 c 0.47306,-0.12974 0.35371,-0.01 -0.85141,0.58405 -0.44827,0.22089 -0.88228,0.41181 -1.22452,0.47256 z"
           sodipodi:nodetypes="sssssss" />
      </g>
      <g
         id="g32592"
         transform="rotate(-50.76157,149.21324,116.70315)">
        <path
           id="path32588"
           style="opacity:0.95;fill:#000000;fill-opacity:1;stroke-width:0.10897"
           d="m 122.12566,139.81039 -0.55721,-0.52136 c -0.6175,-0.57756 0.38148,-1.37825 1.30683,-1.76368 0.92531,-0.38548 2.07006,-0.54206 2.95308,-0.11966 l 0.48739,0.23319 c 0.88311,0.42231 0.60388,1.03724 -1.81587,2.13437 -0.9001,0.40807 -1.75675,0.61485 -2.37422,0.0372 z"
           sodipodi:nodetypes="sssssss" />
        <path
           id="path32590"
           style="opacity:0.95;fill:#ffffff;fill-opacity:1;stroke-width:0.0272484"
           d="m 123.61739,139.92911 -0.30878,0.0549 c -0.34218,0.0609 0.14129,-0.22093 0.60353,-0.44436 0.46221,-0.22344 1.04698,-0.46602 1.52002,-0.59574 l 0.2611,-0.0716 c 0.47306,-0.12974 0.35371,-0.01 -0.85141,0.58405 -0.44827,0.22089 -0.88228,0.41181 -1.22452,0.47256 z"
           sodipodi:nodetypes="sssssss" />
      </g>
      <g
         id="g32598"
         transform="rotate(-82.689713,150.91034,121.77359)">
        <path
           id="path32594"
           style="opacity:0.95;fill:#000000;fill-opacity:1;stroke-width:0.10897"
           d="m 122.12566,139.81039 -0.55721,-0.52136 c -0.6175,-0.57756 0.38148,-1.37825 1.30683,-1.76368 0.92531,-0.38548 2.07006,-0.54206 2.95308,-0.11966 l 0.48739,0.23319 c 0.88311,0.42231 0.60388,1.03724 -1.81587,2.13437 -0.9001,0.40807 -1.75675,0.61485 -2.37422,0.0372 z"
           sodipodi:nodetypes="sssssss" />
        <path
           id="path32596"
           style="opacity:0.95;fill:#ffffff;fill-opacity:1;stroke-width:0.0272484"
           d="m 123.61739,139.92911 -0.30878,0.0549 c -0.34218,0.0609 0.14129,-0.22093 0.60353,-0.44436 0.46221,-0.22344 1.04698,-0.46602 1.52002,-0.59574 l 0.2611,-0.0716 c 0.47306,-0.12974 0.35371,-0.01 -0.85141,0.58405 -0.44827,0.22089 -0.88228,0.41181 -1.22452,0.47256 z"
           sodipodi:nodetypes="sssssss" />
      </g>
      <g
         id="g32604"
         transform="rotate(-107.45207,144.49966,124.31251)">
        <path
           id="path32600"
           style="opacity:0.95;fill:#000000;fill-opacity:1;stroke-width:0.10897"
           d="m 122.12566,139.81039 -0.55721,-0.52136 c -0.6175,-0.57756 0.38148,-1.37825 1.30683,-1.76368 0.92531,-0.38548 2.07006,-0.54206 2.95308,-0.11966 l 0.48739,0.23319 c 0.88311,0.42231 0.60388,1.03724 -1.81587,2.13437 -0.9001,0.40807 -1.75675,0.61485 -2.37422,0.0372 z"
           sodipodi:nodetypes="sssssss" />
        <path
           id="path32602"
           style="opacity:0.95;fill:#ffffff;fill-opacity:1;stroke-width:0.0272484"
           d="m 123.61739,139.92911 -0.30878,0.0549 c -0.34218,0.0609 0.14129,-0.22093 0.60353,-0.44436 0.46221,-0.22344 1.04698,-0.46602 1.52002,-0.59574 l 0.2611,-0.0716 c 0.47306,-0.12974 0.35371,-0.01 -0.85141,0.58405 -0.44827,0.22089 -0.88228,0.41181 -1.22452,0.47256 z"
           sodipodi:nodetypes="sssssss" />
      </g>
      <g
         id="g32610"
         transform="rotate(-118.96453,157.1194,124.59621)">
        <path
           id="path32606"
           style="opacity:0.95;fill:#000000;fill-opacity:1;stroke-width:0.10897"
           d="m 122.12566,139.81039 -0.55721,-0.52136 c -0.6175,-0.57756 0.38148,-1.37825 1.30683,-1.76368 0.92531,-0.38548 2.07006,-0.54206 2.95308,-0.11966 l 0.48739,0.23319 c 0.88311,0.42231 0.60388,1.03724 -1.81587,2.13437 -0.9001,0.40807 -1.75675,0.61485 -2.37422,0.0372 z"
           sodipodi:nodetypes="sssssss" />
        <path
           id="path32608"
           style="opacity:0.95;fill:#ffffff;fill-opacity:1;stroke-width:0.0272484"
           d="m 123.61739,139.92911 -0.30878,0.0549 c -0.34218,0.0609 0.14129,-0.22093 0.60353,-0.44436 0.46221,-0.22344 1.04698,-0.46602 1.52002,-0.59574 l 0.2611,-0.0716 c 0.47306,-0.12974 0.35371,-0.01 -0.85141,0.58405 -0.44827,0.22089 -0.88228,0.41181 -1.22452,0.47256 z"
           sodipodi:nodetypes="sssssss" />
      </g>
      <g
         id="g32616"
         transform="rotate(-98.868077,159.71751,127.05926)">
        <path
           id="path32612"
           style="opacity:0.95;fill:#000000;fill-opacity:1;stroke-width:0.10897"
           d="m 122.12566,139.81039 -0.55721,-0.52136 c -0.6175,-0.57756 0.38148,-1.37825 1.30683,-1.76368 0.92531,-0.38548 2.07006,-0.54206 2.95308,-0.11966 l 0.48739,0.23319 c 0.88311,0.42231 0.60388,1.03724 -1.81587,2.13437 -0.9001,0.40807 -1.75675,0.61485 -2.37422,0.0372 z"
           sodipodi:nodetypes="sssssss" />
        <path
           id="path32614"
           style="opacity:0.95;fill:#ffffff;fill-opacity:1;stroke-width:0.0272484"
           d="m 123.61739,139.92911 -0.30878,0.0549 c -0.34218,0.0609 0.14129,-0.22093 0.60353,-0.44436 0.46221,-0.22344 1.04698,-0.46602 1.52002,-0.59574 l 0.2611,-0.0716 c 0.47306,-0.12974 0.35371,-0.01 -0.85141,0.58405 -0.44827,0.22089 -0.88228,0.41181 -1.22452,0.47256 z"
           sodipodi:nodetypes="sssssss" />
      </g>
      <g
         id="g32580"
         transform="rotate(-57.374584,162.84392,122.14047)">
        <path
           id="path32576"
           style="opacity:0.95;fill:#000000;fill-opacity:1;stroke-width:0.10897"
           d="m 122.12566,139.81039 -0.55721,-0.52136 c -0.6175,-0.57756 0.38148,-1.37825 1.30683,-1.76368 0.92531,-0.38548 2.07006,-0.54206 2.95308,-0.11966 l 0.48739,0.23319 c 0.88311,0.42231 0.60388,1.03724 -1.81587,2.13437 -0.9001,0.40807 -1.75675,0.61485 -2.37422,0.0372 z"
           sodipodi:nodetypes="sssssss" />
        <path
           id="path32578"
           style="opacity:0.95;fill:#ffffff;fill-opacity:1;stroke-width:0.0272484"
           d="m 123.61739,139.92911 -0.30878,0.0549 c -0.34218,0.0609 0.14129,-0.22093 0.60353,-0.44436 0.46221,-0.22344 1.04698,-0.46602 1.52002,-0.59574 l 0.2611,-0.0716 c 0.47306,-0.12974 0.35371,-0.01 -0.85141,0.58405 -0.44827,0.22089 -0.88228,0.41181 -1.22452,0.47256 z"
           sodipodi:nodetypes="sssssss" />
      </g>
    </g>
    <path
       id="path34579"
       style="opacity:0.95;fill:#008c39;fill-opacity:1;stroke-width:0.3"
       d="M -43.676462,115.6277 A 44.366096,44.366096 0 0 1 -88.042563,159.99379 44.366096,44.366096 0 0 1 -132.40866,115.6277 44.366096,44.366096 0 0 1 -88.042563,71.261599 44.366096,44.366096 0 0 1 -43.676462,115.6277 Z" />
    <path
       id="path34581"
       style="fill:#033401;fill-opacity:0.384615;stroke:none;stroke-width:0.264583px;stroke-linecap:butt;stroke-linejoin:miter;stroke-opacity:1"
       d="m -90.809544,71.364843 a 44.366095,44.366095 0 0 0 -7.366992,1.079521 l 0.249081,3.989419 2.758488,4.482415 -0.689364,7.700822 -0.574641,5.172292 3.103169,5.057574 -0.344681,5.861654 -2.988448,8.04551 0.22996,7.93078 1.953885,2.75849 -2.413807,11.60911 1.379246,9.42475 -1.379246,8.8501 1.609206,2.87373 1.576131,3.40392 a 44.366095,44.366095 0 0 0 5.664769,0.38861 44.366095,44.366095 0 0 0 3.045809,-0.11369 l 0.747242,-2.98948 -1.379244,-3.90777 -3.677812,-2.52853 2.643249,-7.93078 c 0,0 -0.804085,-9.76977 -0.804085,-10.68927 0,-0.91951 -1.03456,-12.52843 -1.03456,-12.52843 l -3.793051,-6.09162 4.252452,-7.47087 2.758487,-3.90777 -2.528527,-6.666772 -3.563088,-6.780982 2.183844,-3.103687 2.413807,-5.516975 -3.677811,-4.252455 z m 7.497733,0.15141 -0.248047,3.308326 -0.689879,3.907772 0.804603,5.172294 0.8046,6.321579 1.723927,2.069123 -0.114723,5.746935 0.574643,5.746938 1.953885,2.98845 v 6.55154 l 0.689882,4.02249 -0.574643,7.70082 1.953887,1.14928 v 4.94234 c 0,0 -0.115239,5.63215 -0.115239,6.20685 0,0.57469 -0.574643,5.51698 -0.574641,5.51698 l 2.069124,3.10317 0.22996,4.71289 c 0,0 -1.264523,3.67798 -1.264523,4.13773 0,0.38652 0.707546,2.48291 0.966351,3.24322 a 44.366095,44.366095 0 0 0 9.596313,-4.22455 c 0.05467,-0.1942 0.126605,-0.42093 0.126605,-0.51315 0,-0.57469 -2.413807,-4.36769 -2.413804,-4.36769 l -1.723927,-2.98845 c 0,0 1.149284,-4.827 1.149284,-5.97638 0,-1.14938 -2.298568,-2.87368 -2.298568,-3.44837 0,-0.57469 0.229444,-6.55154 0.229444,-6.55154 l -0.229444,-8.0455 -2.643767,-4.71237 0.22996,-2.64377 v -5.6317 -3.56309 l 1.149284,-5.746931 -1.379244,-7.356142 -2.069123,-2.299083 -0.919324,-4.482415 v -4.367691 l -2.068608,-2.528528 0.229444,-1.839164 0.568957,-4.264855 a 44.366095,44.366095 0 0 0 -5.722649,-0.997358 z m 11.556402,2.846856 -0.08113,0.69143 -1.493967,3.103171 3.677812,1.1498 -0.459402,5.287015 0.804601,2.413807 v 7.470862 l 0.574643,5.516975 2.068605,0.574641 -0.459401,6.09162 1.838648,4.59765 3.678327,2.64377 -1.494483,1.83864 -0.57464,5.28754 0.689879,6.32157 -0.574643,6.09162 1.264007,2.06861 c 0,0 -0.22996,3.79321 -0.22996,4.25297 v 4.59765 l -0.804603,4.13774 1.278475,3.04839 a 44.366095,44.366095 0 0 0 6.713286,-5.95364 c -0.03255,-0.44671 -0.118526,-1.03412 -0.290423,-1.80764 -0.689628,-3.10334 -0.8046,-6.43631 -0.8046,-6.43631 l -1.149803,-2.18384 v -4.59765 -5.40174 l -1.608685,-6.09213 2.873208,-2.87322 0.114724,-5.63221 -3.217892,-4.02249 -2.529046,-4.59765 0.91984,-2.758494 -1.494481,-6.781498 0.91984,-3.793048 -2.758487,-4.137734 1.264004,-3.563088 -0.466122,-2.289268 a 44.366095,44.366095 0 0 0 -8.188129,-4.263821 z m -35.933211,1.501201 a 44.366095,44.366095 0 0 0 -8.30181,5.323189 l -0.32712,2.832385 1.37925,2.528528 -1.14929,3.447852 4.02301,0.919839 -1.26452,2.758488 -2.98845,4.367691 4.02301,1.034563 -2.87321,2.873215 -0.57516,5.17229 0.22996,3.10317 -1.95388,5.05757 2.06912,1.83865 4.13773,0.22996 -2.75848,4.36769 -0.34468,3.67781 -0.68988,3.56309 -2.06913,1.83917 0.45992,2.98845 -0.34468,4.25296 2.98845,0.68937 -1.95389,3.90777 1.49397,1.72444 0.68988,5.05706 0.16743,2.43241 a 44.366095,44.366095 0 0 0 7.53132,4.27261 l 0.46147,-1.64796 -1.6092,-12.4132 1.83916,-2.98845 0.45992,-6.20634 -3.2184,-3.67833 3.44836,-7.2409 -1.83916,-8.96534 -0.68988,-5.1723 1.9544,-5.05705 -0.3452,-7.356142 -0.91932,-6.896222 0.34468,-2.298567 -1.83865,-5.746935 0.57465,-3.218408 z m 51.25579,8.635132 -0.620117,0.452167 0.731221,2.356962 -1.219047,4.307231 1.788004,1.300697 0.16278,2.519225 v 3.819922 2.356964 l -0.08113,2.35696 0.650089,1.70687 1.625225,1.05627 -0.487307,4.79505 c 0,0 0.162263,2.60078 0.162263,3.25097 0,0.65019 0.08113,1.86965 0.08113,1.86965 l 0.975651,0.16227 -0.812871,1.70687 -0.08113,2.51923 0.975135,1.13791 c 0,0 0.406175,1.86928 0.406175,2.68201 v 2.51974 c 0,0.32509 0.487826,2.35696 0.487826,2.35696 l -2.438093,4.87619 v 2.03192 l 0.08113,2.92592 2.763139,-0.4067 0.712619,0.16227 a 44.366095,44.366095 0 0 0 3.768246,-7.35252 l 0.151929,-1.66812 0.731221,-3.49488 -0.325046,-3.25096 v -2.03192 l 0.975651,-2.60087 0.08113,-3.90106 -5.445144,-14.79186 0.162264,-4.551142 -2.600876,-6.908107 -0.118856,-0.594278 a 44.366095,44.366095 0 0 0 -3.243212,-3.677811 z m -65.93396,3.04529 a 44.366095,44.366095 0 0 0 -6.26629,10.250022 l 0.30335,0.404109 -1.13792,3.738787 -0.0811,3.81992 -1.70687,2.27583 0.73122,2.19419 -1.38131,4.14496 0.24391,2.68201 0.0811,3.25096 0.73122,2.03192 v 4.30723 l 1.86966,0.56896 -0.4067,3.3321 v 1.1622 a 44.366095,44.366095 0 0 0 6.09731,10.82311 l 1.21749,-2.06964 -0.24391,-4.71392 -1.21905,-3.25097 1.62523,-3.57601 -1.95027,-2.43809 1.70687,-5.12062 -2.27583,-3.98219 -0.65009,-3.73879 2.84427,-3.33209 v -5.77019 l -0.73122,-6.095753 0.16227,-3.494879 2.4386,-2.438093 z" />
    <path
       id="path34583"
       style="fill:#000000;fill-opacity:0.506787;stroke:none;stroke-width:0.264583px;stroke-linecap:butt;stroke-linejoin:miter;stroke-opacity:1"
       d="m -93.099843,71.581883 c -1.1888,0.13608 -2.371606,0.320201 -3.54552,0.551905 l 0.442351,5.219319 4.482412,4.023011 -3.735689,5.402254 0.287322,2.873208 0.22996,3.965649 3.90829,5.229657 -0.128159,5.536094 -3.33933,6.93239 c 0,0 -0.958083,4.01934 -0.958083,4.19716 0,0.91951 3.735689,6.09214 3.735689,6.09214 0,0 1.609146,3.21801 -1.379243,7.81554 -2.98839,4.59752 -0.22996,10.34459 -0.22996,10.34459 v 5.51698 4.36769 l -1.839164,5.05706 5.287531,2.06912 -1.292426,3.10058 c 1.041985,0.076 2.086327,0.11509 3.131074,0.11731 0.497922,-0.0102 0.995638,-0.0288 1.492932,-0.0558 l 0.0016,-0.0589 0.114723,-4.02301 -5.057058,-4.8271 1.149284,-3.90777 1.839167,-9.65522 0.22996,-5.74694 -1.149803,-11.49336 -4.137731,-4.36769 2.331124,-7.20111 1.869136,-8.11423 1.316715,-1.868103 -1.379244,-1.896525 -4.597135,-7.585586 0.919324,-4.827611 5.516975,-2.758488 -5.516975,-6.206855 z m 11.783776,0.193786 0.05478,2.47427 -1.723924,4.137731 0.919324,5.287015 0.115236,4.138248 2.75849,1.034047 -1.034563,4.25297 1.264005,6.20634 1.724443,3.90829 v 5.6317 l 2.873211,3.56308 -1.609207,3.33313 v 8.16075 l 3.103687,0.8046 -1.609204,5.28701 v 3.67833 l 1.034564,6.32158 -0.68988,1.95389 1.723924,3.90777 v 3.79305 l 1.839164,3.44785 -2.413804,2.64377 0.38292,1.4552 a 44.366095,44.366095 0 0 0 0.0041,-0.002 c 0.664025,-0.24658 1.319202,-0.51576 1.970421,-0.79375 a 44.366095,44.366095 0 0 0 0.589113,-0.25734 c 0.641271,-0.2848 1.27907,-0.57745 1.906341,-0.89246 l 0.20464,-0.65939 -0.91984,-5.17229 -1.723927,-2.29857 0.459922,-2.64376 -1.264523,-4.71238 -0.804603,-2.64377 0.115239,-3.33312 1.034045,-5.40226 -1.034045,-7.47086 -2.069123,-0.34468 0.115236,-3.67833 v -2.52853 l -1.03456,-7.47086 0.919324,-4.25245 -1.379244,-8.965349 c 0,0 -2.87351,-3.333081 -2.98845,-3.907771 -0.114935,-0.574691 0.689882,-6.666778 0.689882,-6.666778 l -1.953887,-2.643248 -0.22996,-4.367692 1.034045,-2.528527 -0.818036,-1.519804 c -0.509844,-0.09729 -1.021332,-0.185767 -1.534274,-0.265102 a 44.366095,44.366095 0 0 0 -10e-4,0 z m 11.324373,3.327445 -1.040246,1.560629 c 0,0 5.862225,3.907642 5.287534,4.252455 -0.574691,0.344815 -2.988448,2.529043 -2.988448,2.529043 0,0 2.068608,3.563041 2.068605,4.137732 v 4.482414 1.723925 c 0,0.45975 -0.689361,3.56309 -0.689361,3.56309 0,0 3.563088,1.264693 3.563088,1.724443 0,0.459754 -2.183844,4.827345 -2.183844,5.516975 0,0.68963 2.068608,5.1723 2.068608,5.1723 l 4.942331,3.67781 c 0,0 -2.298649,4.59738 -2.528527,5.28701 -0.229875,0.68962 0,3.10317 0,3.10317 l 1.034563,4.36769 v 3.56309 c 0,0.57469 -1.149284,2.64377 -1.149284,2.64377 0,0 1.723925,1.03422 1.723925,1.49397 v 3.90828 c 0,5.40209 -0.22996,5.86183 -0.22996,6.32158 v 2.18385 l -1.723925,2.64325 1.880505,0.9896 a 44.366095,44.366095 0 0 0 0.04857,-0.0419 c 0.716034,-0.58148 1.415005,-1.18368 2.093412,-1.80867 l 0.11524,-2.01228 -0.22996,-6.7815 -1.034564,-2.64325 0.22996,-3.67833 -0.22996,-3.44785 v -3.33365 l 0.22996,-3.33312 -1.379243,-5.1723 2.643767,-0.57464 v -4.8271 l -3.448368,-4.13773 -2.873211,-5.74693 2.068608,-2.988454 -2.528528,-5.402252 0.45992,-3.447851 -2.413804,-6.206858 1.149284,-2.873727 0.115236,-3.677811 -2.183844,-0.804601 -0.149863,-0.583943 c -0.890791,-0.471199 -1.797375,-0.91191 -2.718181,-1.321369 z M -109.0415,76.57951 c -4.8e-4,2.52e-4 -0.001,2.65e-4 -0.002,5.19e-4 -0.71963,0.384683 -1.42635,0.792869 -2.12338,1.216461 a 44.366095,44.366095 0 0 0 -0.41083,0.258384 c -0.63697,0.396701 -1.26835,0.802249 -1.88464,1.230932 -0.001,9.29e-4 -0.003,0.0017 -0.004,0.0026 v 5.19e-4 l -0.13694,2.286683 -0.41548,6.926706 4.82709,0.45992 -4.13773,7.585586 3.90829,2.299084 -4.82761,8.045506 1.37924,1.6092 -2.29857,7.12618 h 4.8271 l -2.29857,8.04551 1.14928,1.37924 -4.36769,9.88467 3.44837,0.45992 -2.29908,6.66626 4.13773,1.6092 -2.28513,8.72453 c 1.69694,1.14516 3.47216,2.16946 5.31078,3.06958 a 44.366095,44.366095 0 0 0 0.0646,0.0341 l 0.12816,-1.02422 -0.22996,-7.35563 -1.14929,-8.96534 2.52853,-3.90777 -3.90777,-4.59766 2.29857,-5.05705 0.22996,-4.59765 v -4.13774 l -1.60921,-3.67833 -0.4594,-4.36769 0.4594,-3.44785 2.06913,-5.057572 -0.22996,-1.608688 -0.22996,-4.13825 v -9.884667 l -2.06861,0.68988 -0.68988,-5.287015 z m 53.564168,8.917802 -0.03772,1.395781 -0.804604,3.44837 1.953887,2.758487 v 3.677812 c 0,0 0.374502,0.500203 0.617533,0.947227 l 0.168465,1.534792 v 0.0016 c -0.106569,1.849579 -0.441317,5.332489 -0.441317,5.332489 l 1.034563,0.34468 0.122473,0.85835 0.221692,2.02365 0.345715,3.15484 v 10e-4 0.51366 c 0,0.57469 -0.91984,3.56309 -0.91984,3.56309 l 1.411798,0.41548 0.09043,0.82527 0.17725,1.61644 c -0.327859,0.28817 -0.58107,0.5463 -0.644922,0.7059 -0.22987,0.57469 -1.49428,0.80429 -0.22996,2.06861 0.48623,0.48623 0.953815,1.03885 1.347205,1.53686 v 5.1e-4 l 0.407726,3.72639 -0.605647,2.09238 0.923459,0.8077 0.205155,1.8743 c -0.850521,1.29901 -2.711463,3.62871 -2.711463,4.01888 0,0.57469 -1.858775,3.16394 0.325046,3.27887 1.02747,0.0541 1.815375,0.34223 2.371431,0.63149 a 44.366095,44.366095 0 0 0 0,-5.2e-4 c 0.436536,-0.72153 0.85276,-1.45515 1.247468,-2.20038 a 44.366095,44.366095 0 0 0 0.0026,-0.005 l -0.663008,-0.50436 1.057814,-3.18844 c 0,0 0.919785,-4.71215 1.494483,-4.82709 0.574691,-0.11494 0.114721,-3.21841 0.114724,-3.21841 l -0.459404,-3.56309 1.264004,-2.18385 -1.379244,-5.17229 -2.988447,-7.01094 -1.264007,-7.356145 v -2.988447 l -1.839164,-5.632215 -0.344681,-2.068608 -0.496609,-2.024681 a 44.366095,44.366095 0 0 0 0,-5.16e-4 c -0.0025,-0.003 -0.0052,-0.0058 -0.0078,-0.0088 -0.346649,-0.404561 -0.700442,-0.802944 -1.061434,-1.194758 a 44.366095,44.366095 0 0 0 -0.0057,-0.0062 z m -68.213928,3.771863 a 44.366095,44.366095 0 0 0 -4.52789,7.576799 c -1.6e-4,3.6e-4 -3.4e-4,6.75e-4 -5.1e-4,0.001 l 2.47737,1.769917 -2.75849,5.746929 1.83916,2.29857 -3.21841,7.35614 2.29857,2.52853 -2.52853,8.04602 3.90777,1.60868 c 0,0 0.68982,2.7e-4 -0.91932,3.90829 -1.60912,3.90789 -0.22996,5.51698 -0.22996,5.51698 0,0 -0.0134,0.26201 -0.0233,0.46199 a 44.366095,44.366095 0 0 0 3.60908,5.79654 l -0.0248,-0.28164 -0.68988,-7.35613 -2.0686,-2.75849 2.29856,-9.88467 -2.52852,-3.90829 -0.22996,-4.13773 3.2184,-6.66626 -0.91983,-9.654703 1.83916,-6.896219 z" />
    <path
       id="path34585"
       style="opacity:0.95;fill:url(#linearGradient34597);fill-opacity:1;stroke-width:0.3"
       d="m -88.042788,71.261488 a 44.366095,44.366095 0 0 0 -44.360082,44.216942 c 0.002,0.16644 0.003,0.33272 0.007,0.49144 a 44.366095,44.366095 0 0 0 0.0238,0.64544 c 0.96199,20.54987 22.67495,-31.630628 46.628158,-31.630628 17.583055,-2.970165 20.386503,-6.387901 17.348295,-9.133292 a 44.366095,44.366095 0 0 0 -19.647381,-4.589902 z" />
    <path
       id="path34587"
       style="opacity:0.95;fill:url(#linearGradient34595);fill-opacity:1;stroke-width:0.265716"
       d="m -92.180004,71.779805 c -0.132392,0.0015 -0.270875,0.005 -0.415477,0.0098 -1.14363,0 -2.279579,0.07863 -3.406511,0.222208 a 44.366095,44.366095 0 0 0 -10.104808,3.125906 c -10.49441,5.147911 -19.16602,15.364209 -23.28747,24.432617 a 44.366095,44.366095 0 0 0 -2.58537,10.034534 c 8.4e-4,0.51247 0.0279,1.00841 0.0884,1.48053 1.3964,10.89326 5.01626,-31.927252 26.71878,-31.927252 5.709788,-0.883201 21.333198,-7.469976 12.992486,-7.378361 z" />
    <path
       id="path34589"
       style="opacity:0.95;fill:url(#linearGradient34593);fill-opacity:1;stroke-width:0.3"
       d="m -46.215368,107.04948 c -6.015931,0.10169 -21.935537,38.05467 -41.986583,39.45496 -16.572369,4.00403 -19.639439,7.47558 -17.060969,9.9813 a 44.366095,44.366095 0 0 0 17.220132,3.5078 44.366095,44.366095 0 0 0 44.366285,-44.36577 44.366095,44.366095 0 0 0 -0.04703,-1.98024 c -0.0087,-0.14491 -0.01467,-0.28945 -0.02481,-0.4346 -0.306728,-4.39213 -1.149254,-6.18572 -2.467033,-6.16345 z" />
    <path
       id="path34591"
       style="opacity:0.95;fill:#000000;fill-opacity:0;stroke-width:0.3"
       d="M -43.676462,115.6277 A 44.366096,44.366096 0 0 1 -88.042563,159.99379 44.366096,44.366096 0 0 1 -132.40866,115.6277 44.366096,44.366096 0 0 1 -88.042563,71.261599 44.366096,44.366096 0 0 1 -43.676462,115.6277 Z" />
    <path
       id="path34784"
       style="opacity:0.95;fill:#008c39;fill-opacity:1;stroke-width:0.3"
       d="m -124.52815,179.76308 c 2.46153,22.48825 21.44917,40.05206 44.07173,40.06785 22.62236,-0.0161 41.60971,-17.5798 44.07121,-40.06785 z"
       sodipodi:nodetypes="cccc" />
    <path
       id="path34786"
       style="opacity:0.95;fill:#cc2f35;fill-opacity:1;stroke-width:0.267139"
       d="m -122.05148,179.7631 c 2.45761,19.78477 20.83815,35.96527 40.804742,35.9792 19.884528,-0.0141 40.922763,-16.29928 43.570467,-35.9792 z" />
    <path
       id="path34788"
       style="fill:#000000;fill-opacity:0.506787;stroke:none;stroke-width:0.264583px;stroke-linecap:butt;stroke-linejoin:miter;stroke-opacity:1"
       d="m -123.04109,184.64807 v 1.43661 l -0.26354,0.24494 c 0.20058,0.76176 0.42328,1.51433 0.66197,2.25981 l 1.4981,-0.95291 0.61857,-1.02216 c -0.18646,-0.58029 -0.35952,-1.16527 -0.51832,-1.75493 l -0.44545,0.59324 z m 84.30907,3.09594 -1.084172,0.0181 c -0.538142,1.3444 -1.154668,2.66203 -1.851049,3.94653 l 0.0093,0.0181 1.6769,1.36012 c 0.505212,-1.14121 0.968153,-2.30519 1.37976,-3.49384 l -0.04961,-0.22324 z m -77.00615,8.78912 -0.005,0.0109 -1.95389,0.63252 -0.31109,1.45159 c 0.54049,0.87117 1.11074,1.72125 1.70687,2.55127 l 0.27079,-0.15245 0.28732,-2.29908 1.28209,-0.35812 c -0.44382,-0.59995 -0.86601,-1.21455 -1.27744,-1.83658 z m 68.148292,3.48093 c -0.52329,0.57794 -1.065263,1.14106 -1.619023,1.69447 l 1.292945,2.04638 c 0,0 0.205984,0.39822 0.522965,0.91778 0.781677,-0.88941 1.530601,-1.8084 2.24224,-2.75849 l -1.139981,-0.35347 z m -61.014362,4.79505 -0.29972,0.0682 -0.57464,1.72392 -1.17771,1.04645 c 0.69145,0.6557 1.3959,1.29687 2.127,1.90738 l 1.69447,-1.74718 0.54312,-1.05213 c -0.79266,-0.6227 -1.56435,-1.27123 -2.31252,-1.94666 z m 53.272201,2.0836 c -0.706538,0.50596 -1.423445,0.99693 -2.155425,1.46554 l 0.225308,3.60547 0.398426,0.87643 c 1.350822,-0.86987 2.650842,-1.81368 3.899503,-2.82205 -0.378404,-0.84982 -1.080699,-2.36213 -1.453658,-2.36213 -0.286231,0 -0.634074,-0.39322 -0.914154,-0.76326 z m -42.988592,4.83898 -1.935279,0.80098 -0.4067,2.27532 -5.3e-4,0.006 c 0.75398,0.39628 1.516208,0.77785 2.293921,1.13068 l 0.876432,-0.64906 1.625225,-1.70687 -0.256834,-0.87282 c -0.741569,-0.30626 -1.473195,-0.63608 -2.196248,-0.98443 z m 28.609107,2.26033 c -1.253164,0.37286 -2.516774,0.68987 -3.786333,0.94671 l -0.181901,1.16995 2.706296,2.65514 c 0.900933,-0.20281 1.794941,-0.42507 2.67529,-0.68317 l 0.876432,-2.37866 -2.031918,-1.05627 z m -19.426721,0.89813 -0.227375,1.54358 -1.95027,0.48731 0.06356,1.52859 c 1.568347,0.40482 3.16678,0.72717 4.793504,0.95549 l 0.100253,-0.28939 c 0,0 0.731547,-1.30059 1.137915,-1.95078 0.379844,-0.60775 -0.626896,-1.60654 -0.764294,-1.73891 -1.059894,-0.13574 -2.111589,-0.31365 -3.153296,-0.53589 z" />
    <path
       id="path34790"
       style="opacity:0.95;fill:#00dc2f;fill-opacity:1;stroke-width:0.267139"
       d="m -122.05148,179.7631 c 2.45761,19.78477 20.83815,36.49444 40.80474,36.50836 19.88453,-0.0141 40.92276,-16.82845 43.57047,-36.50836 h -0.0791 c -2.94999,19.44151 -23.78561,35.96522 -43.49141,35.9792 -19.78802,-0.0138 -38.01564,-16.43625 -40.73239,-35.9792 z"
       sodipodi:nodetypes="ccccccc" />
    <path
       id="path34792"
       style="opacity:0.95;fill:#e4000b;fill-opacity:0.348416;stroke-width:0.267139"
       d="m -119.81441,188.65196 c 5.9555,15.52093 21.69449,27.07857 38.567672,27.09034 16.379598,-0.0116 33.531831,-11.06757 40.553082,-25.96328 -9.089586,12.7448 -25.025334,21.58473 -40.336039,21.59558 -15.84239,-0.011 -30.768595,-9.33809 -38.784715,-22.72264 z" />
    <path
       id="path34794"
       style="opacity:0.95;fill:#000000;fill-opacity:1;stroke-width:0.267139"
       d="m -122.05148,179.7631 c 2.45761,19.78477 20.83815,35.96527 40.804742,35.9792 19.884528,-0.0141 40.922763,-16.29928 43.570467,-35.9792 h -0.07906 c -2.949991,19.44151 -23.78561,35.43606 -43.491404,35.45003 -19.788025,-0.0138 -38.015645,-15.90708 -40.732395,-35.45003 z" />
    <path
       id="path34796"
       style="opacity:0.95;fill:#b28789;fill-opacity:0.463801;stroke-width:0.267139"
       d="m -97.915488,179.7631 c 2.228811,2.42732 4.778939,4.56683 7.622276,6.32106 15.406031,9.47503 39.175052,7.30417 51.439754,-5.90507 0.0633,-0.13955 0.134138,-0.27543 0.195336,-0.41599 z" />
    <path
       id="path34798"
       style="opacity:0.95;fill:#b28789;fill-opacity:0.463801;stroke-width:0.267139"
       d="m -78.376628,179.7631 c 11.76219,5.55284 26.236634,6.23839 37.132617,0.20309 0.06297,-0.0686 0.127386,-0.13579 0.19172,-0.20309 z" />
    <path
       id="path34800"
       style="opacity:0.95;fill:#000000;fill-opacity:1;stroke-width:0.10897"
       d="m -116.94555,185.32587 -0.55721,-0.52136 c -0.6175,-0.57756 0.38148,-1.37825 1.30683,-1.76368 0.92531,-0.38548 2.07006,-0.54206 2.95308,-0.11966 l 0.48739,0.23319 c 0.88311,0.42231 0.60388,1.03724 -1.81587,2.13437 -0.9001,0.40807 -1.75675,0.61485 -2.37422,0.0372 z"
       sodipodi:nodetypes="sssssss" />
    <path
       id="path34802"
       style="opacity:0.95;fill:#ffffff;fill-opacity:1;stroke-width:0.0272484"
       d="m -115.45382,185.44459 -0.30878,0.0549 c -0.34218,0.0609 0.14129,-0.22093 0.60353,-0.44436 0.46221,-0.22344 1.04698,-0.46602 1.52002,-0.59574 l 0.2611,-0.0716 c 0.47306,-0.12974 0.35371,-0.01 -0.85141,0.58405 -0.44827,0.22089 -0.88228,0.41181 -1.22452,0.47256 z"
       sodipodi:nodetypes="sssssss" />
    <path
       id="path34806"
       style="opacity:0.95;fill:#000000;fill-opacity:1;stroke-width:0.10897"
       d="m -112.7207,195.87082 -0.65798,-0.38647 c -0.72913,-0.42808 0.0699,-1.42835 0.88824,-2.00733 0.81825,-0.57902 1.9008,-0.98284 2.85495,-0.76437 l 0.52667,0.12063 c 0.95422,0.21836 0.81665,0.87956 -1.3036,2.48064 -0.78869,0.59553 -1.57914,0.98514 -2.30826,0.55696 z"
       sodipodi:nodetypes="sssssss" />
    <path
       id="path34808"
       style="opacity:0.95;fill:#ffffff;fill-opacity:1;stroke-width:0.0272484"
       d="m -111.23924,195.65952 -0.28923,0.12127 c -0.32049,0.13446 0.0894,-0.24653 0.49139,-0.56589 0.40196,-0.31937 0.9193,-0.68428 1.35237,-0.91459 l 0.23905,-0.12711 c 0.43309,-0.23033 0.3429,-0.0873 -0.70261,0.75655 -0.38891,0.31382 -0.77049,0.59527 -1.09107,0.72959 z"
       sodipodi:nodetypes="sssssss" />
    <path
       id="path34812"
       style="opacity:0.95;fill:#000000;fill-opacity:1;stroke-width:0.10897"
       d="m -104.40288,190.27707 -0.65527,-0.39105 c -0.72612,-0.43316 0.0799,-1.42784 0.90224,-2.00109 0.82227,-0.57329 1.9076,-0.96954 2.86021,-0.74441 l 0.52581,0.1243 c 0.95268,0.22502 0.81049,0.88523 -1.32088,2.47147 -0.79283,0.59001 -1.58598,0.9741 -2.3121,0.54084 z"
       sodipodi:nodetypes="sssssss" />
    <path
       id="path34814"
       style="opacity:0.95;fill:#ffffff;fill-opacity:1;stroke-width:0.0272484"
       d="m -102.91999,190.07611 -0.29006,0.11926 c -0.32143,0.13222 0.0911,-0.24591 0.49533,-0.56246 0.40417,-0.31655 0.92405,-0.67784 1.35872,-0.90511 l 0.23992,-0.12545 c 0.43469,-0.22729 0.34351,-0.0849 -0.70786,0.75163 -0.3911,0.31109 -0.77463,0.58987 -1.09615,0.72196 z"
       sodipodi:nodetypes="sssssss" />
    <path
       id="path34818"
       style="opacity:0.95;fill:#000000;fill-opacity:1;stroke-width:0.10897"
       d="m -101.33381,202.66405 -0.76237,0.033 c -0.84471,0.0367 -0.71728,-1.23718 -0.34482,-2.16783 0.3724,-0.93065 1.06187,-1.8578 1.98163,-2.19275 l 0.50769,-0.18485 c 0.91976,-0.33508 1.16347,0.29477 0.25324,2.79084 -0.33862,0.92846 -0.79058,1.68499 -1.63533,1.72163 z"
       sodipodi:nodetypes="sssssss" />
    <path
       id="path34820"
       style="opacity:0.95;fill:#ffffff;fill-opacity:1;stroke-width:0.0272484"
       d="m -100.20485,201.6818 -0.17693,0.25895 c -0.19603,0.287 -0.0589,-0.25555 0.10511,-0.74206 0.16396,-0.4865 0.40004,-1.07392 0.63851,-1.50255 l 0.13163,-0.23659 c 0.23848,-0.42866 0.24045,-0.25961 -0.17885,1.01687 -0.15603,0.47476 -0.32348,0.91835 -0.51965,1.20529 z"
       sodipodi:nodetypes="sssssss" />
    <path
       id="path34824"
       style="opacity:0.95;fill:#000000;fill-opacity:1;stroke-width:0.10897"
       d="m -89.09516,197.81497 -0.75627,0.10179 c -0.83793,0.11293 -0.82618,-1.16728 -0.53937,-2.12778 0.28674,-0.96051 0.88958,-1.94619 1.77529,-2.36291 l 0.48891,-0.22999 c 0.88569,-0.41686 1.18534,0.18838 0.50448,2.75652 -0.2533,0.95527 -0.63501,1.74956 -1.47299,1.86241 z"
       sodipodi:nodetypes="sssssss" />
    <path
       id="path34826"
       style="opacity:0.95;fill:#ffffff;fill-opacity:1;stroke-width:0.0272484"
       d="m -88.05962,196.73469 -0.1528,0.27389 c -0.16927,0.30355 -0.0817,-0.24918 0.0376,-0.74853 0.11931,-0.49933 0.30133,-1.10569 0.50008,-1.55412 l 0.1097,-0.24752 c 0.19875,-0.44846 0.21599,-0.28028 -0.0862,1.02888 -0.11247,0.48692 -0.23913,0.94383 -0.40856,1.24733 z"
       sodipodi:nodetypes="sssssss" />
    <path
       id="path34830"
       style="opacity:0.95;fill:#000000;fill-opacity:1;stroke-width:0.10897"
       d="m -73.93332,198.13483 -0.58802,0.48634 c -0.65144,0.53899 -1.31851,-0.55375 -1.58306,-1.52062 -0.26461,-0.96684 -0.27426,-2.12221 0.25707,-2.94431 l 0.29331,-0.45375 c 0.53125,-0.8222 1.10565,-0.46699 1.88596,2.07269 0.29023,0.94471 0.38632,1.82071 -0.2652,2.35966 z"
       sodipodi:nodetypes="sssssss" />
    <path
       id="path34832"
       style="opacity:0.95;fill:#ffffff;fill-opacity:1;stroke-width:0.0272484"
       d="m -73.62575,196.67033 0.0152,0.31326 c 0.0169,0.34714 -0.20116,-0.16826 -0.36395,-0.65517 -0.16281,-0.48688 -0.32901,-1.09777 -0.39749,-1.58347 l -0.0378,-0.26809 c -0.0685,-0.48572 0.0351,-0.3521 0.47096,0.91881 0.16206,0.47273 0.2962,0.92751 0.31291,1.27469 z"
       sodipodi:nodetypes="sssssss" />
    <path
       id="path34836"
       style="opacity:0.95;fill:#000000;fill-opacity:1;stroke-width:0.10897"
       d="m -73.07693,186.52414 -0.33025,0.68792 c -0.36578,0.76229 -1.42921,0.0494 -2.07442,-0.71773 -0.64524,-0.76711 -1.13793,-1.81221 -0.9998,-2.78126 l 0.0763,-0.53489 c 0.13802,-0.96911 0.80839,-0.88716 2.58072,1.09217 0.65923,0.73628 1.11341,1.49148 0.74753,2.25377 z"
       sodipodi:nodetypes="sssssss" />
    <path
       id="path34838"
       style="opacity:0.95;fill:#ffffff;fill-opacity:1;stroke-width:0.0272484"
       d="m -73.41105,185.06547 0.14497,0.2781 c 0.16072,0.30817 -0.25313,-0.0685 -0.6049,-0.44248 -0.35178,-0.37392 -0.75857,-0.85902 -1.02419,-1.27138 l -0.14661,-0.22761 c -0.26564,-0.41238 -0.11562,-0.33443 0.81251,0.63706 0.34516,0.36138 0.65746,0.71816 0.81805,1.02642 z"
       sodipodi:nodetypes="sssssss" />
    <path
       id="path34842"
       style="opacity:0.95;fill:#000000;fill-opacity:1;stroke-width:0.10897"
       d="m -51.69427,193.36066 -0.18631,0.73999 c -0.20629,0.81996 -1.3906,0.33368 -2.17594,-0.28928 -0.78536,-0.62289 -1.47672,-1.54863 -1.53477,-2.52576 l -0.032,-0.53935 c -0.0582,-0.97716 0.61506,-1.03065 2.74677,0.55513 0.79292,0.5899 1.38869,1.23927 1.18231,2.05924 z"
       sodipodi:nodetypes="sssssss" />
    <path
       id="path34844"
       style="opacity:0.95;fill:#ffffff;fill-opacity:1;stroke-width:0.0272484"
       d="m -52.3128,191.99802 0.19757,0.24357 c 0.21898,0.26989 -0.26172,-0.0166 -0.68105,-0.31285 -0.41933,-0.29619 -0.91475,-0.69034 -1.25733,-1.04139 l -0.18908,-0.19377 c -0.3426,-0.35106 -0.18004,-0.30463 0.9233,0.46208 0.41035,0.28523 0.78757,0.57249 1.00645,0.84251 z"
       sodipodi:nodetypes="sssssss" />
    <path
       id="path34848"
       style="opacity:0.95;fill:#000000;fill-opacity:1;stroke-width:0.10897"
       d="m -60.95984,207.7515 -0.42923,0.63092 c -0.47546,0.69916 -1.42058,-0.16445 -1.94406,-1.01932 -0.52352,-0.85482 -0.8547,-1.96175 -0.57347,-2.89933 l 0.15526,-0.51751 c 0.28112,-0.93766 0.93175,-0.75656 2.38879,1.46513 0.54195,0.82643 0.87832,1.64096 0.40277,2.3401 z"
       sodipodi:nodetypes="sssssss" />
    <path
       id="path34850"
       style="opacity:0.95;fill:#ffffff;fill-opacity:1;stroke-width:0.0272484"
       d="m -61.07251,206.2593 0.10185,0.29663 c 0.11292,0.3287 -0.24007,-0.10555 -0.53209,-0.52782 -0.29202,-0.42224 -0.62185,-0.96262 -0.82294,-1.41001 l -0.111,-0.24694 c -0.20111,-0.4474 -0.0644,-0.34794 0.70832,0.7512 0.28736,0.40886 0.5429,0.80825 0.65569,1.13703 z"
       sodipodi:nodetypes="sssssss" />
    <path
       id="path34854"
       style="opacity:0.95;fill:#000000;fill-opacity:1;stroke-width:0.10897"
       d="m -83.29847,211.47605 -0.73951,0.1882 c -0.81935,0.20868 -0.95511,-1.06436 -0.78083,-2.05151 0.17422,-0.98713 0.65953,-2.03568 1.49136,-2.55163 l 0.45917,-0.28477 c 0.8318,-0.51608 1.19915,0.0506 0.81858,2.68009 -0.14161,0.97808 -0.42931,1.81105 -1.24872,2.01965 z"
       sodipodi:nodetypes="sssssss" />
    <path
       id="path34856"
       style="opacity:0.95;fill:#ffffff;fill-opacity:1;stroke-width:0.0272484"
       d="m -82.39423,210.2837 -0.12024,0.28966 c -0.13319,0.32102 -0.10989,-0.23811 -0.0488,-0.74788 0.061,-0.50974 0.17198,-1.13303 0.31777,-1.60137 l 0.0805,-0.2585 c 0.14578,-0.46837 0.18228,-0.30329 0.0329,1.03196 -0.0556,0.49663 -0.12885,0.96509 -0.2622,1.28608 z"
       sodipodi:nodetypes="sssssss" />
  </g>
</svg>
