<?xml version="1.0" encoding="UTF-8"?>
<svg id="svg5" width="20mm" height="10mm" version="1.1" viewBox="0 0 20 10" xmlns="http://www.w3.org/2000/svg" xmlns:xlink="http://www.w3.org/1999/xlink">
 <defs id="defs2">
  <linearGradient id="linearGradient8689" x1="13" x2="13" y1="10" y2="1.2e-16" gradientUnits="userSpaceOnUse">
   <stop id="stop8203" offset="0"/>
   <stop id="stop8205" stop-color="#04c9d6" stop-opacity="0" offset="1"/>
  </linearGradient>
 </defs>
 <g id="layer1">
  <path id="rect5677" d="m-20 0v10h60v-10c-3.3 0-3.9 3-5.4 2.7-1.2-0.22-2.7-2.7-4-2.6-1.8 0.1-3 3.8-4.8 3.6-2.5-0.29-2.1-3.7-5.8-3.7-3.3 0-3.9 3-5.4 2.7-1.2-0.22-2.7-2.7-4-2.6-1.8 0.1-3 3.8-4.8 3.6-2.5-0.29-2.1-3.7-5.8-3.7-3.3 0-3.9 3-5.4 2.7-1.2-0.22-2.7-2.7-4-2.6-1.8 0.1-3 3.8-4.8 3.6-2.5-0.29-2.1-3.7-5.8-3.7z" fill="url(#linearGradient8689)" stroke="#000" stroke-width=".1"/>
 </g>
</svg>
